<?xml version="1.0" encoding="utf-8"?>
<!-- Generator: Adobe Illustrator 27.5.0, SVG Export Plug-In . SVG Version: 6.00 Build 0)  -->
<svg version="1.1" id="Layer_1" xmlns="http://www.w3.org/2000/svg" xmlns:xlink="http://www.w3.org/1999/xlink" x="0px" y="0px"
	 viewBox="0 0 346.189 346.904" style="enable-background:new 0 0 346.189 346.904;" xml:space="preserve">
<g>
	<g>
		<path style="fill-rule:evenodd;clip-rule:evenodd;fill:#4A397F;" d="M49.175,122.059c-2.279-2.584-3.854-5.383-4.941-8.439
			c-1.508-4.24-2.199-8.65-2.673-13.109c-0.427-4.01-0.552-8.055-1.398-12.017c-0.309-1.454-0.762-2.853-1.525-4.136
			c-0.365-0.611-0.418-1.207,0.485-1.061c3.037,0.492,5.858-0.377,8.698-1.198c4.942-1.429,9.791-3.197,14.867-4.137
			c0.445-0.082,0.693-0.208,0.783-0.709c0.522-2.907,1.209-5.79,1.19-8.772c-0.007-0.887-0.179-1.742-0.34-2.607
			c-0.177-0.955,0.301-1.512,1.16-1.28c3.218,0.867,6.333-0.005,9.496-0.375c1.887-0.221,2.682-0.96,3.039-2.9
			c0.926-5.026,2.855-9.794,4.189-14.721c0.626-2.315,1.176-4.653,0.739-7.091c-0.116-0.648,0.22-1.014,0.813-0.662
			c3.737,2.218,7.955,2.179,12.064,2.605c5.246,0.546,10.51,0.975,15.592,2.494c3.738,1.117,7.191,2.818,10.283,5.569
			c0.258-2.827,0.824-5.403,1.815-7.88c1.707-4.275,4.301-8.009,7.125-11.592c2.548-3.232,5.19-6.391,7.736-9.625
			c1.189-1.51,2.123-3.186,2.577-5.088c0.148-0.618,0.499-1.082,1.027-0.394c2.376,3.096,5.79,4.705,9.098,6.471
			c3.871,2.068,7.821,3.994,11.442,6.498c0.264,0.183,0.467,0.385,0.834,0.127c2.617-1.831,5.394-3.457,7.536-5.888
			c0.472-0.534,0.825-1.172,1.259-1.742c0.534-0.703,1.23-0.761,1.664-0.023c1.838,3.134,4.95,4.802,7.691,6.912
			c1.061,0.816,1.823,0.856,2.975,0.05c3.932-2.755,8.336-4.7,12.523-7.019c2.588-1.434,5.198-2.838,6.993-5.32
			c0.392-0.542,0.839-0.545,1.017,0.127c1.037,3.941,3.746,6.818,6.222,9.838c3.242,3.956,6.578,7.836,9.15,12.292
			c2.158,3.739,3.616,7.7,3.922,12.218c0.537-0.421,0.957-0.754,1.381-1.082c3.958-3.053,8.551-4.557,13.377-5.516
			c5.266-1.045,10.631-1.217,15.939-1.883c2.467-0.309,4.89-0.766,7.079-2.039c0.662-0.385,1.14-0.31,0.997,0.574
			c-0.497,3.072,0.413,5.938,1.246,8.809c1.423,4.9,3.191,9.705,4.093,14.75c0.066,0.371,0.183,0.635,0.646,0.718
			c3.183,0.567,6.336,1.364,9.608,1.157c0.593-0.037,1.179-0.193,1.766-0.307c0.975-0.188,1.585,0.282,1.344,1.197
			c-1.023,3.889,0.203,7.604,0.782,11.37c0.059,0.377,0.209,0.632,0.663,0.711c6.037,1.056,11.714,3.414,17.638,4.88
			c1.94,0.48,3.9,0.857,5.923,0.482c0.604-0.111,1.202,0.062,0.754,0.808c-1.953,3.249-2.063,6.905-2.472,10.508
			c-0.481,4.243-0.742,8.509-1.572,12.717c-1.058,5.368-2.847,10.374-6.6,14.694c2.351,0.271,4.558,0.646,6.686,1.396
			c5.054,1.78,9.343,4.822,13.468,8.131c2.807,2.25,5.56,4.568,8.389,6.789c1.698,1.334,3.526,2.477,5.685,2.971
			c0.705,0.161,0.899,0.572,0.264,1.061c-2.788,2.138-4.343,5.166-5.946,8.162c-2.202,4.114-4.222,8.33-6.878,12.188
			c-0.234,0.342-0.436,0.631-0.137,1.07c1.779,2.606,3.44,5.306,5.808,7.449c0.499,0.451,1.097,0.795,1.651,1.184
			c0.796,0.559,0.839,1.301,0.014,1.805c-3.451,2.107-5.256,5.619-7.528,8.732c-0.221,0.303-0.16,0.539,0.055,0.85
			c3.16,4.582,5.448,9.656,8.163,14.49c1.254,2.232,2.575,4.42,4.712,5.969c0.616,0.447,0.696,0.896-0.192,1.127
			c-2.867,0.738-5.148,2.49-7.401,4.287c-3.903,3.113-7.601,6.486-11.766,9.273c-4.53,3.031-9.332,5.322-15.051,5.684
			c1.373,1.699,2.546,3.338,3.469,5.154c2.489,4.895,3.384,10.189,4.026,15.561c0.54,4.518,0.584,9.096,1.648,13.549
			c0.299,1.25,0.746,2.435,1.416,3.537c0.428,0.701,0.229,1.129-0.607,0.98c-2.865-0.512-5.558,0.299-8.237,1.068
			c-5.095,1.465-10.082,3.314-15.319,4.266c-0.337,0.061-0.64,0.164-0.698,0.543c-0.545,3.537-1.66,7.02-1.042,10.67
			c0.047,0.273,0.144,0.539,0.2,0.811c0.193,0.939-0.34,1.594-1.231,1.355c-3.886-1.039-7.599,0.193-11.364,0.77
			c-0.418,0.064-0.637,0.273-0.708,0.682c-1.078,6.154-3.518,11.934-4.972,17.984c-0.432,1.797-0.662,3.615-0.402,5.467
			c0.089,0.633,0.021,1.313-0.822,0.813c-3.075-1.822-6.516-2.039-9.928-2.393c-5.757-0.596-11.552-0.93-17.16-2.533
			c-3.953-1.129-7.596-2.863-10.851-5.742c-0.19,3.1-0.903,5.893-2.056,8.566c-2.031,4.705-5.051,8.772-8.282,12.699
			c-2.032,2.471-4.056,4.947-6.027,7.463c-1.286,1.643-2.351,3.426-2.863,5.48c-0.161,0.647-0.488,1.074-1.015,0.383
			c-2.186-2.867-5.299-4.441-8.36-6.074c-4.085-2.18-8.255-4.201-12.092-6.816c-0.344-0.234-0.616-0.42-1.052-0.117
			c-2.556,1.781-5.236,3.4-7.35,5.742c-0.451,0.5-0.816,1.08-1.199,1.639c-0.639,0.93-1.336,0.941-1.936-0.023
			c-2.108-3.393-5.592-5.17-8.672-7.424c-0.381-0.279-0.66-0.055-0.964,0.156c-4.152,2.865-8.724,4.986-13.129,7.406
			c-2.698,1.48-5.431,2.91-7.292,5.506c-0.341,0.475-0.838,0.486-0.988-0.102c-1.201-4.662-4.66-7.834-7.484-11.422
			c-1.781-2.26-3.68-4.426-5.328-6.789c-3.394-4.865-6.121-9.998-6.478-16.267c-3.303,2.912-7.02,4.689-11.062,5.797
			c-3.979,1.09-8.058,1.617-12.161,2.002c-3.259,0.305-6.535,0.478-9.76,1.102c-1.693,0.328-3.34,0.783-4.824,1.705
			c-0.554,0.346-1.131,0.363-0.99-0.465c0.504-2.947-0.285-5.715-1.084-8.475c-1.46-5.059-3.282-10.014-4.25-15.207
			c-0.086-0.463-0.256-0.688-0.74-0.762c-2.366-0.365-4.721-0.813-7.094-1.129c-1.387-0.186-2.784-0.09-4.157,0.303
			c-0.987,0.281-1.579-0.289-1.345-1.273c0.927-3.887-0.184-7.611-0.836-11.377c-0.08-0.461-0.349-0.582-0.721-0.647
			c-5.088-0.895-9.92-2.705-14.857-4.139c-2.836-0.824-5.677-1.674-8.699-1.191c-0.631,0.1-1.021-0.213-0.66-0.82
			c2.205-3.695,2.146-7.873,2.604-11.939c0.441-3.928,0.721-7.875,1.52-11.76c1.066-5.186,2.873-10.029,6.496-14.195
			c-1.217-0.186-2.307-0.309-3.377-0.521c-5.554-1.104-10.225-4.004-14.626-7.371c-3.078-2.355-6.027-4.879-9.046-7.313
			c-2.183-1.76-4.413-3.441-7.215-4.127c-0.664-0.162-0.807-0.566-0.258-0.986c3.371-2.58,4.979-6.373,6.903-9.949
			c1.909-3.551,3.698-7.168,5.995-10.496c0.238-0.344,0.434-0.6,0.125-1.039c-1.676-2.385-3.199-4.883-5.287-6.953
			c-0.654-0.65-1.391-1.189-2.178-1.676c-0.795-0.492-0.873-1.299-0.127-1.729c2.928-1.686,4.608-4.482,6.471-7.116
			c1.422-2.01,1.428-2.032,0.129-4.028c-2.467-3.789-4.368-7.889-6.545-11.836c-1.469-2.662-2.901-5.344-5.434-7.205
			c-0.558-0.408-0.49-0.863,0.163-1.024c3.132-0.773,5.555-2.733,7.984-4.688c4.2-3.382,8.205-7.01,12.811-9.873
			C39.728,124.225,44.098,122.426,49.175,122.059z"/>
		<path style="fill-rule:evenodd;clip-rule:evenodd;fill:#98E6FC;" d="M98.087,109.726c4.092-0.023,7.625,0.563,11.085,1.61
			c0.609,0.185,1.223,0.537,1.79-0.021c0.567-0.557,0.225-1.176,0.048-1.788c-3.243-11.228-1.88-21.728,5.431-31.032
			c6.163-7.846,14.453-12.1,24.41-12.389c13.984-0.408,24.036,6.252,30.842,18.211c0.322,0.564,0.453,1.334,1.365,1.294
			c0.82-0.036,0.962-0.722,1.265-1.269c5.622-10.137,13.954-16.605,25.583-18.068c16.661-2.098,32.607,8.896,36.066,25.819
			c1.21,5.923,0.817,11.757-0.964,17.515c-0.176,0.568-0.482,1.131,0.053,1.674c0.574,0.583,1.17,0.258,1.776,0.063
			c17.202-5.529,35.453,3.177,41.472,19.781c5.77,15.917-1.008,32.896-16.353,40.967c-0.565,0.297-1.226,0.502-1.203,1.311
			c0.021,0.744,0.653,0.924,1.173,1.209c9.99,5.486,16.438,13.633,18.104,25.039c2.421,16.566-8.375,33.094-25.746,36.666
			c-5.922,1.217-11.759,0.803-17.518-0.969c-0.565-0.174-1.123-0.492-1.673,0.047c-0.592,0.578-0.243,1.176-0.068,1.781
			c3.326,11.467,1.772,22.09-5.771,31.518c-11.679,14.598-33.997,16.068-47.572,3.26c-3.054-2.883-5.585-6.141-7.5-9.875
			c-0.265-0.517-0.523-1.012-1.21-0.982c-0.683,0.027-0.884,0.566-1.153,1.066c-4.918,9.117-12.217,15.273-22.385,17.717
			c-17.857,4.291-36.27-7.814-39.48-25.852c-1.021-5.74-0.635-11.371,1.08-16.926c0.178-0.578,0.457-1.15-0.051-1.682
			c-0.561-0.584-1.178-0.254-1.783-0.059c-18.605,5.982-37.637-4.4-42.518-23.197c-3.567-13.736,2.341-28.123,14.813-36.037
			c0.874-0.555,1.795-1.037,2.703-1.539c0.525-0.289,1.096-0.506,1.064-1.279c-0.027-0.706-0.555-0.9-1.052-1.158
			c-5.091-2.647-9.336-6.277-12.622-10.988c-13.611-19.514-2.508-46.529,20.891-50.889C94.493,109.9,96.519,109.787,98.087,109.726z
			"/>
		<path style="fill-rule:evenodd;clip-rule:evenodd;fill:#84ADFD;" d="M123.894,69.191c-7.861,4.953-13.017,11.897-15.445,20.943
			c-3.906-1.859-7.838-3.58-11.855-5.098c-4.892-1.846-9.869-3.424-14.938-4.711c-1.588-0.402-2.072,0.104-1.658,1.701
			c2.338,9.018,5.451,17.754,9.521,26.141c0.087,0.178,0.156,0.364,0.264,0.615c-9.01,2.42-15.982,7.582-20.992,15.538
			c-2.672-4.071-4.386-8.415-5.377-13.062c-1.799-8.438-1.121-16.836,0.348-25.23c0.812-4.639,1.973-9.211,2.624-13.879
			c0.21-1.506,0.354-3.017,0.208-4.537c-0.044-0.467-0.02-0.756,0.586-0.721c4.98,0.291,9.73-1.117,14.539-2.045
			c6.401-1.233,12.816-2.267,19.363-2.158c7.666,0.127,14.965,1.673,21.63,5.645c0.309,0.183,0.612,0.377,0.909,0.577
			C123.716,68.976,123.786,69.08,123.894,69.191z"/>
		<path style="fill-rule:evenodd;clip-rule:evenodd;fill:#84ADFD;" d="M123.972,277.584c-3.668,2.428-7.508,4.037-11.599,5.053
			c-6.882,1.707-13.838,1.703-20.833,0.871c-6.273-0.748-12.397-2.314-18.618-3.346c-1.858-0.307-3.719-0.514-5.606-0.4
			c-0.359,0.022-0.807,0.189-0.768-0.527c0.277-5.06-1.145-9.889-2.088-14.777c-1.188-6.168-2.184-12.354-2.124-18.658
			c0.075-7.828,1.577-15.303,5.651-22.115c0.244-0.408,0.514-0.803,0.818-1.279c2.264,3.613,4.961,6.736,8.281,9.303
			c3.546,2.742,7.456,4.766,11.789,5.93c0.778,0.209,0.899,0.393,0.537,1.145c-3.939,8.18-7.018,16.678-9.319,25.459
			c-0.081,0.309-0.166,0.617-0.226,0.93c-0.201,1.047,0.372,1.59,1.448,1.307c3.55-0.93,7.081-1.928,10.556-3.111
			c5.365-1.828,10.625-3.918,15.725-6.4c0.446-0.217,0.836-0.58,1.084,0.313C111.087,265.986,116.229,272.662,123.972,277.584z"/>
		<path style="fill-rule:evenodd;clip-rule:evenodd;fill:#84ADFD;" d="M173.025,323.822c-3.374-3.75-7.708-6.199-11.814-8.941
			c-6.9-4.607-13.539-9.516-18.813-16.022c-4-4.935-6.955-10.406-8.314-16.664c-0.023-0.109-0.02-0.225-0.037-0.449
			c9.063,1.986,17.627,0.828,25.766-3.885c0.502,1.346,0.992,2.664,1.486,3.982c2.857,7.641,6.434,14.936,10.578,21.957
			c0.807,1.365,1.503,1.361,2.326-0.033c4.675-7.922,8.589-16.203,11.608-24.895c0.298-0.857,0.508-1,1.335-0.537
			c7.415,4.139,15.311,5.252,23.62,3.633c1.291-0.252,1.302-0.252,0.985,1.043c-1.744,7.125-5.486,13.127-10.405,18.463
			c-4.665,5.06-10.152,9.111-15.828,12.943c-3.638,2.455-7.457,4.662-10.721,7.645C174.184,322.623,173.615,323.234,173.025,323.822
			z"/>
		<path style="fill-rule:evenodd;clip-rule:evenodd;fill:#84ADFD;" d="M277.157,124.174c-4.948-7.816-11.89-12.961-20.91-15.391
			c1.758-3.688,3.371-7.371,4.817-11.125c1.938-5.03,3.561-10.16,4.922-15.375c0.509-1.949,0.077-2.398-1.821-1.9
			c-8.815,2.31-17.372,5.33-25.576,9.313c-0.775,0.377-1.046,0.404-1.318-0.551c-2.367-8.285-7.211-14.764-14.42-19.478
			c-0.233-0.152-0.461-0.315-0.768-0.524c3.115-2.146,6.499-3.603,10.063-4.642c6.416-1.871,12.966-2.102,19.586-1.565
			c7.146,0.58,14.079,2.383,21.118,3.574c1.931,0.327,3.865,0.598,5.834,0.434c0.362-0.029,0.813-0.184,0.776,0.514
			c-0.262,4.898,1.101,9.575,2.018,14.308c1.285,6.638,2.384,13.292,2.212,20.084c-0.191,7.58-1.77,14.799-5.747,21.365
			C277.742,123.544,277.606,123.941,277.157,124.174z"/>
		<path style="fill-rule:evenodd;clip-rule:evenodd;fill:#84ADFD;" d="M277.522,160.158c4.69-8.074,5.881-16.642,3.869-25.803
			c3.815,0.734,7.275,2.1,10.552,3.928c7.413,4.135,13.107,10.135,18.122,16.854c2.965,3.971,5.576,8.186,8.393,12.26
			c1.482,2.143,3.034,4.217,5.07,5.895c-4.26,3.898-6.942,8.943-10.139,13.6c-4.015,5.85-8.3,11.461-13.709,16.115
			c-5.129,4.414-10.864,7.693-17.515,9.227c-0.226,0.051-0.457,0.168-0.743-0.031c0.872-3.932,1.149-7.922,0.692-11.961
			c-0.515-4.545-1.86-8.814-4.129-12.781c-0.405-0.707-0.431-0.982,0.446-1.283c8.708-2.982,16.974-6.928,24.897-11.602
			c1.522-0.896,1.533-1.558,0.016-2.451c-7.755-4.566-15.855-8.396-24.338-11.412C278.525,160.539,278.047,160.354,277.522,160.158z
			"/>
		<path style="fill-rule:evenodd;clip-rule:evenodd;fill:#84ADFD;" d="M222.193,277.496c2.667-1.686,5.123-3.637,7.266-5.959
			c3.72-4.029,6.365-8.676,7.826-13.965c0.236-0.857,0.458-0.961,1.249-0.578c8.243,3.99,16.821,7.07,25.685,9.365
			c1.798,0.465,2.234,0.041,1.778-1.748c-2.223-8.721-5.228-17.158-9.116-25.279c-0.666-1.389-0.657-1.367,0.799-1.813
			c7.937-2.434,14.204-7.119,18.836-14.002c0.217-0.32,0.428-0.646,0.714-1.08c1.849,2.611,3.098,5.395,4.087,8.297
			c2.43,7.125,2.756,14.451,2.083,21.885c-0.643,7.1-2.442,13.994-3.605,21c-0.295,1.777-0.489,3.561-0.381,5.367
			c0.025,0.434,0.13,0.853-0.613,0.816c-4.855-0.24-9.497,1.1-14.19,2.014c-6.48,1.262-12.977,2.34-19.605,2.227
			c-7.745-0.131-15.129-1.701-21.844-5.762C222.83,278.082,222.426,277.953,222.193,277.496z"/>
		<path style="fill-rule:evenodd;clip-rule:evenodd;fill:#84ADFD;" d="M64.655,134.32c-2.037,9.201-0.824,17.766,3.873,25.857
			c-4.695,1.635-9.234,3.471-13.676,5.551c-4.197,1.965-8.283,4.133-12.266,6.496c-1.366,0.811-1.365,1.518,0.011,2.324
			c7.937,4.652,16.208,8.592,24.904,11.609c0.851,0.295,1.001,0.482,0.527,1.336c-4.165,7.5-5.278,15.486-3.563,23.865
			c0.211,1.031-0.013,1.012-0.872,0.805c-7.384-1.791-13.563-5.676-19.048-10.811c-4.996-4.68-8.994-10.16-12.798-15.803
			c-2.253-3.346-4.313-6.828-6.966-9.891c-0.697-0.805-1.969-1.52-2.027-2.344c-0.049-0.68,1.359-1.414,2.025-2.205
			c2.839-3.371,5.096-7.152,7.547-10.797c4.164-6.188,8.67-12.086,14.406-16.928C51.937,138.996,57.75,135.775,64.655,134.32z"/>
		<path style="fill-rule:evenodd;clip-rule:evenodd;fill:#84ADFD;" d="M134.161,64.43c0.965-4.809,3.023-9.143,5.749-13.18
			c4.896-7.25,11.505-12.686,18.619-17.594c3.911-2.697,8.005-5.128,11.716-8.114c0.995-0.801,1.86-1.733,2.729-2.679
			c3.338,3.707,7.599,6.128,11.643,8.83c6.394,4.271,12.587,8.781,17.699,14.603c4.575,5.209,7.972,11.053,9.564,17.861
			c0.036,0.155,0.068,0.313,0.087,0.471c0.008,0.072-0.023,0.148-0.055,0.322c-2.334-0.468-4.68-0.84-7.063-0.902
			c-6.288-0.167-12.203,1.219-17.683,4.316c-0.824,0.465-1.054,0.38-1.358-0.506c-2.98-8.666-6.915-16.893-11.55-24.791
			c-0.916-1.56-1.589-1.559-2.52,0.029c-4.614,7.864-8.488,16.076-11.5,24.684c-0.305,0.871-0.497,1.074-1.395,0.575
			c-7.264-4.032-15-5.211-23.159-3.684c-0.234,0.044-0.476,0.056-0.714,0.083C134.63,64.819,134.206,65.096,134.161,64.43z"/>
		<path style="fill-rule:evenodd;clip-rule:evenodd;fill:#DBDCFA;" d="M187.368,315.602c2.983-2.076,5.861-4.084,8.569-6.322
			c5.999-4.961,11.212-10.578,14.731-17.608c1.507-3.008,2.683-6.141,3.281-9.463c0.141-0.779,0.438-1.248,1.268-1.465
			c1.467-0.385,2.847-1.031,4.191-1.731c0.482-0.25,0.834-0.258,1.305,0.059c7.267,4.885,15.409,6.762,24.035,6.938
			c6.061,0.121,12.033-0.662,17.967-1.816c0.19-0.037,0.385-0.061,0.698-0.109c-0.283,1.959-0.842,3.773-1.374,5.584
			c-1.069,3.633-2.224,7.242-3.353,10.857c-0.109,0.352-0.121,0.756-0.751,0.682c-6.343-0.736-12.759-0.873-19.021-2.264
			c-5.83-1.297-11.174-3.555-15.383-7.992c-0.855-0.9-1.623-1.869-2.343-2.879c-0.211-0.293-0.432-0.48-0.789-0.367
			c-0.409,0.127-0.365,0.473-0.311,0.791c1.665,9.553-2.317,17.309-7.896,24.506c-2.814,3.631-5.811,7.121-8.727,10.672
			c-0.213,0.26-0.336,0.613-0.841,0.324C197.642,321.148,192.346,318.865,187.368,315.602z"/>
		<path style="fill-rule:evenodd;clip-rule:evenodd;fill:#DBDCFA;" d="M100.034,60.777c-5.49-0.043-10.917,0.604-16.291,1.685
			c-1.042,0.21-1.188,0.091-0.936-0.978c1.231-5.209,3.15-10.209,4.564-15.361c0.132-0.482,0.314-0.664,0.813-0.605
			c7.677,0.909,15.479,0.924,22.941,3.349c5.555,1.805,10.223,4.826,13.626,9.648c0.24,0.341,0.46,0.701,0.949,0.467
			c0.432-0.207,0.296-0.584,0.232-0.941c-1.073-6.086,0.275-11.72,3.144-17.088c2.868-5.369,6.851-9.906,10.727-14.527
			c0.925-1.101,1.837-2.215,2.725-3.347c0.304-0.389,0.511-0.591,1.046-0.282c4.629,2.672,9.537,4.832,14.09,7.65
			c0.808,0.499,1.025,0.713,0.07,1.356c-5.889,3.958-11.414,8.354-16.034,13.791c-4.781,5.627-8.279,11.908-9.678,19.236
			c-0.112,0.586-0.388,0.875-0.947,1.04c-1.571,0.465-3.067,1.129-4.525,1.866c-0.445,0.226-0.743,0.229-1.173-0.061
			c-6.756-4.539-14.304-6.537-22.352-6.893C102.03,60.739,101.031,60.777,100.034,60.777z"/>
		<path style="fill-rule:evenodd;clip-rule:evenodd;fill:#DBDCFA;" d="M315.202,158.947c-2.501-3.689-5.127-7.308-8.102-10.658
			c-6.207-6.99-13.367-12.569-22.509-15.211c-1.261-0.364-2.833-0.324-3.725-1.094c-0.849-0.732-0.829-2.383-1.491-3.442
			c-1.005-1.61-0.704-2.817,0.266-4.372c4.212-6.756,5.816-14.271,6.015-22.144c0.16-6.386-0.675-12.671-1.923-18.987
			c0.679-0.169,1.26,0.16,1.848,0.299c4.974,1.176,9.75,3.013,14.666,4.381c0.438,0.122,0.688,0.215,0.62,0.781
			c-0.789,6.536-0.9,13.151-2.42,19.602c-1.626,6.905-4.702,12.874-10.664,17.05c-0.316,0.221-0.609,0.451-0.41,0.869
			c0.194,0.409,0.556,0.33,0.935,0.264c6.442-1.141,12.342,0.416,17.936,3.576c4.8,2.711,8.946,6.287,13.147,9.795
			c1.289,1.074,2.588,2.138,3.883,3.205c0.294,0.243,0.682,0.379,0.365,0.933c-2.85,4.987-5.139,10.282-8.295,15.101
			C315.33,158.915,315.289,158.916,315.202,158.947z"/>
		<path style="fill-rule:evenodd;clip-rule:evenodd;fill:#DBDCFA;" d="M30.794,187.715c2.564,3.766,5.137,7.322,8.055,10.617
			c6.002,6.775,12.896,12.26,21.672,15.029c0.987,0.313,1.982,0.717,2.996,0.799c1.363,0.111,2.019,0.729,2.328,2.018
			c0.211,0.881,0.553,1.777,1.043,2.533c0.779,1.199,0.607,2.104-0.166,3.293c-3.824,5.893-5.598,12.476-6.179,19.416
			c-0.599,7.146,0.212,14.197,1.574,21.197c0.202,1.043,0.046,1.201-1.009,0.951c-5.211-1.238-10.215-3.152-15.363-4.58
			c-0.39-0.107-0.638-0.219-0.579-0.707c0.915-7.598,0.927-15.32,3.267-22.719c1.785-5.648,4.788-10.416,9.674-13.889
			c0.321-0.229,0.729-0.412,0.555-0.926c-0.137-0.404-0.467-0.369-0.794-0.313c-9.065,1.574-16.571-2-23.577-7.176
			c-4.022-2.971-7.684-6.387-11.623-9.459c-0.386-0.301-0.469-0.541-0.219-0.977c2.758-4.809,4.984-9.908,7.973-14.592
			C30.503,188.104,30.6,187.982,30.794,187.715z"/>
		<path style="fill-rule:evenodd;clip-rule:evenodd;fill:#DBDCFA;" d="M187.334,31.115c4.131-2.604,8.303-4.695,12.457-6.819
			c0.498-0.254,0.987-0.524,1.477-0.792c1.787-0.977,1.787-0.978,3.018,0.57c2.735,3.441,5.715,6.683,8.35,10.208
			c3.373,4.515,6.224,9.278,7.355,14.898c0.565,2.81,0.639,5.622,0.184,8.456c-0.071,0.445-0.476,1.087,0.243,1.361
			c0.619,0.235,0.795-0.396,1.056-0.757c4.159-5.761,10.041-8.714,16.762-10.297c4.878-1.149,9.858-1.519,14.834-1.936
			c1.552-0.13,3.102-0.303,4.648-0.482c0.502-0.059,0.773,0.02,0.933,0.588c1.443,5.144,3.313,10.16,4.586,15.357
			c0.263,1.074,0.03,1.175-0.978,0.981c-7.004-1.345-14.052-2.175-21.203-1.573c-7.237,0.609-14.04,2.553-20.131,6.629
			c-0.61,0.408-1.059,0.475-1.709,0.114c-1.362-0.753-2.82-1.307-4.306-1.776c-0.43-0.136-0.729-0.287-0.838-0.842
			c-2.144-10.865-8.398-19.145-16.55-26.228C194.354,36.025,190.954,33.582,187.334,31.115z"/>
		<path style="fill-rule:evenodd;clip-rule:evenodd;fill:#DBDCFA;" d="M158.688,315.602c-2.832,1.852-5.733,3.342-8.61,4.873
			c-2.112,1.125-4.241,2.219-6.361,3.33c-0.367,0.191-0.656,0.543-1.087-0.018c-3.749-4.877-8.059-9.313-11.444-14.479
			c-2.811-4.289-4.937-8.848-5.49-14.021c-0.234-2.199-0.173-4.387,0.244-6.563c0.075-0.393,0.215-0.83-0.302-1.024
			c-0.427-0.16-0.641,0.154-0.858,0.465c-4.092,5.861-9.954,8.924-16.717,10.553c-4.719,1.137-9.538,1.527-14.355,1.934
			c-1.791,0.152-3.579,0.338-5.369,0.514c-0.395,0.039-0.756,0.162-0.92-0.43c-1.504-5.459-3.549-10.76-4.78-16.299
			c-0.016-0.07,0.013-0.148,0.032-0.332c2.116,0.359,4.219,0.768,6.336,1.064c10.056,1.408,20,1.428,29.609-2.498
			c2.299-0.938,4.501-2.059,6.537-3.477c0.568-0.396,1.002-0.477,1.615-0.137c1.363,0.758,2.813,1.336,4.306,1.781
			c0.575,0.17,0.839,0.473,0.95,1.053c1.555,8.145,5.652,14.932,11.195,20.949c4.225,4.586,9.104,8.387,14.223,11.9
			C157.832,315.012,158.222,315.281,158.688,315.602z"/>
		<path style="fill-rule:evenodd;clip-rule:evenodd;fill:#DBDCFA;" d="M54.078,125.905c0.89-0.032,2.278,0.134,3.657,0.38
			c0.365,0.064,0.729,0.181,0.914-0.273c0.178-0.43-0.101-0.65-0.416-0.871c-7.209-5.072-10.035-12.541-11.386-20.82
			c-0.838-5.133-1.001-10.336-1.635-15.49c-0.054-0.443-0.236-0.885,0.509-1.09c5.189-1.433,10.238-3.334,15.479-4.605
			c1.095-0.267,1.09,0.031,0.919,0.922c-1.339,7.006-2.183,14.051-1.589,21.203c0.601,7.238,2.543,14.041,6.594,20.142
			c0.424,0.638,0.545,1.108,0.148,1.804c-0.749,1.32-1.302,2.737-1.729,4.195c-0.163,0.555-0.459,0.848-1.043,0.96
			c-8.656,1.659-15.751,6.144-21.994,12.172c-4.221,4.075-7.785,8.687-11.04,13.544c-0.636,0.949-0.88,0.732-1.37-0.073
			c-2.781-4.573-5-9.448-7.621-14.106c-0.188-0.336-0.318-0.579,0.09-0.895c5.368-4.154,10.236-8.953,16.094-12.477
			C43.247,127.766,48.12,125.911,54.078,125.905z"/>
		<path style="fill-rule:evenodd;clip-rule:evenodd;fill:#DBDCFA;" d="M315.273,187.689c2.16,3.408,3.934,6.844,5.707,10.281
			c0.822,1.594,1.675,3.174,2.523,4.754c0.189,0.352,0.44,0.627-0.041,1c-5.114,3.959-9.77,8.502-15.271,11.965
			c-4.345,2.736-8.953,4.744-14.157,5.055c-1.917,0.115-3.835,0.053-5.734-0.291c-0.344-0.061-0.747-0.193-0.934,0.256
			c-0.175,0.422,0.12,0.652,0.433,0.871c6.599,4.605,9.573,11.336,11.058,18.926c0.945,4.83,1.223,9.74,1.672,14.631
			c0.011,0.119,0.014,0.238,0.018,0.359c0.04,1.105,0.771,2.479,0.139,3.223c-0.605,0.713-2.036,0.717-3.099,1.053
			c-4.257,1.344-8.489,2.768-12.831,3.832c-0.711,0.174-1.075,0.281-0.869-0.766c1.29-6.561,2.09-13.178,1.722-19.883
			c-0.429-7.826-2.362-15.199-6.796-21.779c-0.351-0.521-0.439-0.936-0.113-1.514c0.787-1.391,1.341-2.893,1.842-4.406
			c0.152-0.463,0.298-0.73,0.831-0.836c11.704-2.342,20.339-9.338,27.688-18.287C311.239,193.479,313.189,190.656,315.273,187.689z"
			/>
		<path style="fill-rule:evenodd;clip-rule:evenodd;fill:#DBDCFA;" d="M82.28,82.546c3.891,1.048,7.613,2.188,11.283,3.511
			c4.616,1.664,9.137,3.549,13.562,5.67c0.693,0.334,0.858,0.652,0.737,1.438c-0.854,5.555-0.613,9.427,0.891,15.923
			c-1.041-0.231-2.021-0.471-3.012-0.663c-4.356-0.849-8.729-0.925-13.107-0.206c-0.527,0.087-0.837,0.092-1.118-0.486
			c-3.847-7.913-6.888-16.124-9.153-24.624C82.332,82.993,82.327,82.872,82.28,82.546z"/>
		<path style="fill-rule:evenodd;clip-rule:evenodd;fill:#6D26B2;" d="M172.977,301.691c-3.162-5.393-5.911-10.922-8.261-16.643
			c-1.028-2.508-1.935-5.065-2.888-7.602c-0.131-0.348-0.367-0.686,0.139-1.022c2.313-1.533,4.295-3.445,6.177-5.473
			c1.876-2.02,3.409-4.287,4.867-6.727c1.097,1.773,2.157,3.461,3.412,5.014c2.121,2.625,4.509,4.973,7.266,6.93
			c0.423,0.301,0.815,0.508,0.566,1.225c-2.893,8.31-6.548,16.271-10.929,23.9C173.253,301.426,173.126,301.525,172.977,301.691z"/>
		<path style="fill-rule:evenodd;clip-rule:evenodd;fill:#6D26B2;" d="M301.454,173.334c-5.255,3.104-10.573,5.725-16.045,8.047
			c-2.716,1.152-5.472,2.197-8.262,3.154c-0.442,0.152-0.771,0.289-1.119-0.211c-3.159-4.529-7.234-8.059-11.955-10.873
			c-0.032-0.02-0.049-0.063-0.117-0.154c3.594-2.054,6.788-4.605,9.527-7.703c0.871-0.984,1.675-2.033,2.466-3.085
			c0.293-0.39,0.482-0.593,1.046-0.4C285.461,165.027,293.54,168.777,301.454,173.334z"/>
		<path style="fill-rule:evenodd;clip-rule:evenodd;fill:#6D26B2;" d="M172.989,44.943c1.925,3.188,3.6,6.399,5.174,9.663
			c2.269,4.704,4.278,9.517,5.988,14.454c0.196,0.568,0.317,0.961-0.317,1.404c-4.318,3.024-7.731,6.892-10.433,11.403
			c-0.117,0.196-0.266,0.375-0.424,0.595c-2.771-4.828-6.344-8.861-10.838-12.063c-0.336-0.24-0.582-0.406-0.396-0.947
			C164.678,60.949,168.421,52.821,172.989,44.943z"/>
		<path style="fill-rule:evenodd;clip-rule:evenodd;fill:#DBDCFA;" d="M108.803,237.58c-1.491,5.518-1.831,10.902-0.88,16.334
			c0.144,0.814-0.399,0.865-0.81,1.066c-5.42,2.641-10.999,4.896-16.729,6.768c-2.645,0.865-5.323,1.625-8.176,2.49
			c0.605-2.705,1.402-5.15,2.191-7.592c1.928-5.963,4.271-11.764,6.994-17.408c0.234-0.484,0.4-0.891,1.115-0.77
			C97.94,239.396,103.317,239.055,108.803,237.58z"/>
		<path style="fill-rule:evenodd;clip-rule:evenodd;fill:#DBDCFA;" d="M263.839,82.613c-2.344,8.76-5.41,17.087-9.317,25.104
			c-0.183,0.375-0.303,0.601-0.862,0.549c-8.313-0.771-8.313-0.76-16.363,0.789c0.466-2.125,0.942-4.207,1.146-6.338
			c0.302-3.16,0.253-6.303-0.242-9.438c-0.091-0.572-0.273-1.09,0.518-1.47c7.931-3.809,16.13-6.88,24.638-9.124
			C263.462,82.657,263.574,82.652,263.839,82.613z"/>
		<path style="fill-rule:evenodd;clip-rule:evenodd;fill:#DBDCFA;" d="M237.34,237.602c4.095,1.105,8.127,1.572,12.226,1.32
			c1.313-0.08,2.619-0.271,3.924-0.441c0.477-0.061,0.763-0.031,1.021,0.5c3.933,8.037,6.981,16.398,9.348,25.27
			c-2.471-0.74-4.787-1.4-7.083-2.127c-6.088-1.928-11.991-4.326-17.754-7.074c-0.543-0.258-1.038-0.438-0.892-1.281
			c0.915-5.273,0.578-10.496-0.74-15.67C237.362,237.99,237.366,237.873,237.34,237.602z"/>
		<path style="fill-rule:evenodd;clip-rule:evenodd;fill:#6D26B2;" d="M44.661,173.339c5.717-3.386,11.625-6.243,17.715-8.724
			c2.139-0.871,4.325-1.62,6.484-2.439c0.48-0.182,0.822-0.26,1.2,0.281c3.164,4.523,7.221,8.074,12.107,10.885
			c-2.128,1.309-4.144,2.631-5.979,4.209c-2.252,1.938-4.289,4.07-5.982,6.508c-0.424,0.609-0.775,0.695-1.464,0.455
			c-8.19-2.863-16.032-6.477-23.56-10.78C45.015,173.637,44.87,173.498,44.661,173.339z"/>
		<path style="fill-rule:evenodd;clip-rule:evenodd;fill:#4A397F;" d="M221.548,54.619c0.201,0.468-0.171,1.037,0.257,1.465
			c-0.131,0.127-0.27,0.71-0.425,0.142C221.248,55.746,221.257,55.13,221.548,54.619z"/>
		<path style="fill-rule:evenodd;clip-rule:evenodd;fill:#D1D1D0;" d="M134.161,64.43c0.176,0.341,0.527,0.245,0.809,0.326
			c-0.268,0.188-0.576,0.328-0.872,0.158C133.882,64.79,134.027,64.58,134.161,64.43z"/>
		<path style="fill-rule:evenodd;clip-rule:evenodd;fill:#4A397F;" d="M113.84,113.652c-1.034-4.422-1.532-8.902-1.214-13.437
			c0.639-9.111,3.736-17.205,10.704-23.334c8.917-7.844,19.151-8.75,29.915-4.594c8.472,3.271,14.676,9.332,19.355,17.021
			c0.119,0.197,0.236,0.395,0.414,0.689c1.823-3.072,3.838-5.895,6.258-8.408c6.279-6.525,13.728-10.855,22.89-11.548
			c15.512-1.171,25.419,8.964,29.245,20.093c2.605,7.58,2.689,15.268,0.854,23.02c-0.089,0.375-0.172,0.751-0.285,1.243
			c3.126-0.743,6.168-1.322,9.282-1.46c7.037-0.311,13.765,0.846,20.004,4.237c13.647,7.419,18.802,22.414,12.675,36.862
			c-3.444,8.122-9.218,14.196-16.666,18.774c-0.269,0.165-0.535,0.333-0.887,0.552c3.732,2.184,7.1,4.736,10.006,7.855
			c6.239,6.699,10.107,14.453,10.019,23.775c-0.103,10.832-5.279,18.779-14.495,24.156c-7.236,4.223-15.137,5.266-23.367,4.4
			c-2.176-0.229-4.303-0.725-6.573-1.234c0.878,3.459,1.464,6.834,1.518,10.268c0.163,10.621-2.718,20.166-10.902,27.344
			c-9.122,7.998-19.585,8.684-30.486,4.223c-7.907-3.236-13.799-8.951-18.298-16.148c-0.211-0.338-0.414-0.682-0.629-1.016
			c-0.041-0.065-0.119-0.105-0.211-0.182c-3.096,5.314-7.043,9.869-12.063,13.441c-6.672,4.748-14.047,7.215-22.29,6.375
			c-8.851-0.898-15.581-5.393-20.407-12.744c-4.828-7.353-6.197-15.545-5.469-24.18c0.207-2.459,0.727-4.867,1.33-7.398
			c-4.236,1.119-8.414,1.668-12.659,1.512c-10.525-0.391-19.675-3.896-26.245-12.443c-6.32-8.221-7.035-17.449-3.676-27.023
			c3.115-8.881,9.195-15.395,17.084-20.324c0.334-0.209,0.67-0.416,1.076-0.67c-4.42-2.592-8.311-5.688-11.537-9.563
			c-5.188-6.23-8.416-13.267-8.48-21.502c-0.082-10.531,4.637-18.482,13.403-24.066c7.305-4.654,15.411-5.867,23.907-5.119
			c2.154,0.189,4.254,0.687,6.372,1.088C113.888,114.407,114.017,114.182,113.84,113.652z"/>
		<path style="fill-rule:evenodd;clip-rule:evenodd;fill:#D5D5D4;" d="M113.84,113.652c0.164,0.225,0.376,0.494,0.103,0.714
			c-0.176,0.142-0.445-0.018-0.632-0.179C113.63,114.151,113.8,113.967,113.84,113.652z"/>
		<path style="fill-rule:evenodd;clip-rule:evenodd;fill:#883CB8;" d="M232.475,102.404c-0.015,4.305-0.522,8.011-1.509,11.654
			c-0.125,0.459-0.586,0.998-0.05,1.441c0.425,0.352,0.909,0.033,1.365-0.087c7.253-1.917,14.527-2.159,21.773-0.046
			c7.908,2.308,14.341,6.703,18.265,14.096c4.488,8.46,3.982,17.095,0.011,25.59c-3.55,7.592-9.284,13.198-16.474,17.387
			c-0.398,0.23-0.995,0.325-0.998,0.915c-0.003,0.593,0.599,0.685,0.994,0.915c8.225,4.826,14.516,11.385,17.766,20.469
			c5.462,15.268-1.817,30.344-17.155,35.834c-7.979,2.857-16.039,2.861-24.169,0.729c-0.467-0.123-0.987-0.545-1.446-0.029
			c-0.4,0.453,0.001,0.926,0.115,1.357c2.377,9.057,2.232,17.992-1.749,26.576c-3.979,8.574-10.412,14.387-19.944,16.105
			c-8.347,1.504-15.911-0.746-22.821-5.424c-5.254-3.555-9.346-8.203-12.509-13.688c-0.223-0.387-0.287-1-0.903-0.994
			c-0.6,0.004-0.693,0.584-0.927,0.98c-4.903,8.326-11.541,14.686-20.811,17.869c-15.07,5.178-29.748-1.861-35.326-16.801
			c-3.042-8.149-3.078-16.395-0.864-24.725c0.12-0.449,0.45-0.943,0.021-1.34c-0.377-0.346-0.83-0.029-1.246,0.078
			c-9.518,2.477-18.873,2.273-27.777-2.227c-8.204-4.145-13.617-10.631-15.128-19.895c-1.313-8.053,0.875-15.359,5.312-22.053
			c3.527-5.322,8.179-9.471,13.674-12.697c0.453-0.266,1.201-0.322,1.217-1.008c0.018-0.762-0.795-0.813-1.271-1.098
			c-8.075-4.825-14.261-11.316-17.462-20.283c-3.108-8.709-2.568-17.163,2.731-24.945c4.485-6.588,10.945-10.367,18.605-12.166
			c6.712-1.578,13.4-1.244,20.037,0.535c0.445,0.12,0.928,0.457,1.34,0.014c0.362-0.389,0.049-0.823-0.058-1.238
			c-2.638-10.259-2.253-20.249,3.239-29.555c5.438-9.216,13.592-13.984,24.405-13.65c7.021,0.216,13.181,2.93,18.699,7.178
			c4.397,3.387,7.889,7.559,10.657,12.354c0.23,0.399,0.332,0.992,0.912,1.004c0.598,0.013,0.678-0.602,0.908-0.994
			c5.071-8.584,11.946-15.063,21.6-18.141c13.323-4.25,26.117,0.969,32.786,13.254C231.233,91.043,232.446,96.85,232.475,102.404z"
			/>
		<path style="fill-rule:evenodd;clip-rule:evenodd;fill:#4A397F;" d="M121.288,240.012c0.115-2.756,0.286-5.508,0.904-8.205
			c0.16-0.697,0.045-1.092-0.752-1.17c-1.347-0.133-2.672-0.422-4.046-0.129c-1.093,0.232-1.587-0.223-1.388-1.287
			c0.274-1.459-0.035-2.854-0.205-4.277c-0.104-0.865-0.46-0.904-1.185-0.758c-4.779,0.967-9.584,1.215-14.412,0.379
			c-5.95-1.031-11.3-3.334-15.283-8.004c-5.868-6.879-6.032-14.59-2.633-22.559c2.766-6.486,7.568-11.295,13.342-15.178
			c0.782-0.525,0.884-0.861,0.299-1.584c-0.828-1.027-1.582-2.1-2.699-2.861c-0.859-0.585-0.837-1.248,0.031-1.901
			c1.103-0.83,1.926-1.897,2.744-2.989c0.503-0.671,0.52-1.008-0.271-1.527c-4.834-3.184-8.93-7.124-11.884-12.146
			c-3.303-5.615-4.766-11.617-3.035-18.033c1.98-7.334,7.182-11.688,14.061-14.224c6.283-2.316,12.751-2.356,19.253-1.112
			c1.091,0.209,1.579,0.161,1.679-1.109c0.098-1.236,0.271-2.451,0.049-3.688c-0.174-0.975,0.251-1.444,1.258-1.31
			c1.365,0.183,2.696,0.021,4.05-0.142c1.034-0.124,1.214-0.509,1.001-1.458c-0.643-2.855-0.91-5.765-0.855-8.686
			c0.092-4.883,1.019-9.583,3.256-13.986c4.969-9.777,14.931-13.898,25.34-10.405c7.52,2.524,13.003,7.62,17.455,13.984
			c0.889,1.269,0.879,1.28,2.152,0.333c0.932-0.693,1.815-1.424,2.483-2.406c0.587-0.861,1.285-0.849,1.896,0.014
			c0.853,1.2,2.035,2.008,3.18,2.881c0.636,0.486,0.875,0.297,1.251-0.275c2.703-4.111,5.971-7.7,10.002-10.552
			c4.436-3.138,9.304-5.138,14.801-5.174c7.342-0.048,12.971,3.207,16.987,9.274c3.06,4.624,4.353,9.813,4.574,15.295
			c0.136,3.367-0.14,6.712-0.865,10.006c-0.153,0.693,0.027,0.941,0.691,1.023c1.425,0.176,2.832,0.428,4.284,0.122
			c0.898-0.189,1.381,0.294,1.241,1.235c-0.207,1.404-0.042,2.781,0.153,4.174c0.122,0.869,0.414,1.131,1.305,0.94
			c4.05-0.862,8.145-1.132,12.269-0.679c4.754,0.521,9.233,1.886,13.204,4.619c8.061,5.549,10.951,14.661,7.647,24.082
			c-2.533,7.225-7.428,12.578-13.571,16.913c-1.618,1.142-1.64,1.125-0.441,2.668c0.639,0.821,1.33,1.583,2.19,2.198
			c0.905,0.648,0.905,1.229,0.004,1.883c-1.158,0.84-1.958,1.975-2.815,3.082c-0.534,0.689-0.37,0.986,0.305,1.436
			c5.265,3.512,9.696,7.838,12.636,13.51c3.344,6.453,4.299,13.137,1.111,19.918c-2.83,6.023-7.928,9.471-14.1,11.42
			c-6.044,1.91-12.201,1.859-18.364,0.619c-0.901-0.182-1.214,0.006-1.298,0.877c-0.126,1.309-0.392,2.592-0.11,3.93
			c0.23,1.09-0.211,1.49-1.309,1.35c-1.446-0.184-2.865-0.029-4.29,0.211c-0.69,0.117-0.891,0.338-0.736,1.102
			c1.206,5.955,1.325,11.912-0.34,17.805c-1.518,5.373-4.209,10.043-8.886,13.268c-6.55,4.518-13.546,4.463-20.641,1.479
			c-6.545-2.754-11.446-7.496-15.347-13.32c-0.661-0.988-1.102-1.039-1.952-0.295c-0.931,0.814-1.935,1.527-2.646,2.578
			c-0.563,0.832-1.24,0.83-1.828,0.016c-0.786-1.09-1.817-1.889-2.857-2.707c-0.787-0.619-1.208-0.629-1.819,0.309
			c-2.601,3.984-5.817,7.418-9.693,10.197c-4.663,3.344-9.817,5.41-15.616,5.258c-7.281-0.193-12.763-3.668-16.598-9.783
			C122.45,251.447,121.37,245.855,121.288,240.012z"/>
		<path style="fill-rule:evenodd;clip-rule:evenodd;fill:#DBDCFA;" d="M231.051,138.318c-0.029,1.314-0.134,3.017-0.548,4.703
			c-0.743,3.031-2.28,5.52-4.84,7.324c-0.6,0.423-0.947,0.9-0.689,1.597c0.278,0.749,0.908,0.573,1.524,0.474
			c4.27-0.699,7.84,0.836,11.023,3.531c2.87,2.431,5.035,5.445,7.071,8.568c1.852,2.84,3.385,5.898,5.753,8.381
			c0.268,0.282,0.325,0.458,0.025,0.775c-2.582,2.727-4.181,6.123-6.233,9.211c-1.931,2.906-3.985,5.705-6.68,7.965
			c-3.196,2.678-6.756,4.223-11.037,3.475c-0.601-0.105-1.222-0.174-1.541,0.539c-0.327,0.734,0.157,1.088,0.674,1.451
			c3.545,2.492,5.019,6.086,5.379,10.246c0.425,4.896-0.675,9.609-1.765,14.322c-0.513,2.217-1.107,4.42-1.117,6.721
			c-0.002,0.289,0.109,0.623-0.427,0.646c-4.466,0.207-8.662,1.809-13.028,2.535c-3.963,0.662-7.925,1.021-11.876-0.117
			c-2.746-0.791-4.985-2.285-6.658-4.615c-0.162-0.227-0.325-0.465-0.537-0.639c-0.333-0.27-0.732-0.314-1.129-0.131
			c-0.418,0.195-0.589,0.564-0.513,0.988c1.244,6.889-2.579,11.352-7.356,15.338c-2.43,2.027-5.158,3.627-7.83,5.307
			c-1.792,1.127-3.616,2.209-5.15,3.699c-0.211,0.205-0.372,0.525-0.766,0.156c-3.063-2.871-6.902-4.596-10.307-6.967
			c-2.334-1.625-4.592-3.34-6.488-5.479c-2.998-3.379-4.789-7.154-3.857-11.82c0.114-0.572-0.107-1.025-0.627-1.295
			c-0.471-0.246-0.896-0.064-1.159,0.32c-3.543,5.182-8.789,6.057-14.503,5.77c-3.49-0.176-6.866-1.004-10.254-1.766
			c-2.258-0.51-4.494-1.143-6.838-1.119c-0.344,0.002-0.6-0.008-0.619-0.484c-0.188-4.428-1.792-8.582-2.516-12.91
			c-0.655-3.926-1.033-7.842,0.045-11.764c0.779-2.838,2.289-5.162,4.695-6.877c0.545-0.389,1.085-0.783,0.8-1.541
			c-0.305-0.809-0.999-0.623-1.639-0.525c-5.289,0.813-9.27-1.637-12.769-5.193c-2.537-2.58-4.48-5.611-6.399-8.658
			c-1.444-2.295-2.729-4.707-4.687-6.641c-0.279-0.275-0.312-0.438-0.002-0.759c2.35-2.445,3.841-5.483,5.654-8.298
			c2.325-3.609,4.786-7.096,8.28-9.702c3.015-2.247,6.345-3.322,10.121-2.64c0.62,0.113,1.148,0.035,1.438-0.537
			c0.273-0.537,0.057-0.996-0.443-1.333c-4.236-2.852-5.548-7.108-5.691-11.915c-0.135-4.526,0.955-8.877,1.955-13.237
			c0.482-2.103,0.989-4.2,1.016-6.37c0.006-0.399,0.043-0.571,0.482-0.582c3.957-0.102,7.668-1.484,11.502-2.224
			c4.143-0.8,8.283-1.348,12.479-0.399c3.122,0.707,5.692,2.255,7.566,4.889c0.381,0.534,0.793,1.084,1.563,0.756
			c0.779-0.334,0.597-0.979,0.492-1.641c-0.624-3.929,0.638-7.318,3.039-10.369c2.434-3.094,5.564-5.365,8.809-7.511
			c2.925-1.936,6.112-3.491,8.672-5.959c0.227-0.22,0.379-0.329,0.674-0.048c2.806,2.678,6.32,4.314,9.502,6.439
			c2.87,1.916,5.614,3.981,7.832,6.65c2.606,3.137,4.11,6.637,3.389,10.831c-0.107,0.624-0.22,1.335,0.563,1.653
			c0.795,0.322,1.142-0.289,1.521-0.814c2.739-3.811,6.688-5.11,11.141-5.324c4.773-0.23,9.357,0.927,13.953,1.978
			c1.984,0.453,3.958,0.976,6.02,0.937c0.372-0.006,0.725-0.019,0.744,0.518c0.159,4.354,1.733,8.433,2.465,12.676
			C230.76,133.611,231.053,135.748,231.051,138.318z"/>
		<path style="fill-rule:evenodd;clip-rule:evenodd;fill:#84ADFD;" d="M97.147,167.7c-7.104-4.727-12.798-10.509-15.178-18.87
			c-2.924-10.279,1.818-19.579,12.051-23.84c6.693-2.787,13.607-2.768,20.604-1.44c0.583,0.11,0.687,0.363,0.551,0.912
			c-0.93,3.76-1.824,7.528-2.073,11.411c-0.043,0.682-0.513,0.477-0.858,0.49c-4.276,0.162-8.526,0.547-12.741,1.322
			c-2.316,0.426-4.598,0.995-6.887,1.537c-1.046,0.248-1.037,0.709-0.563,1.52c3.328,5.676,7.215,10.931,11.751,15.7
			c0.321,0.337,0.757,0.57,0.249,1.147C101.37,160.631,99.347,164.131,97.147,167.7z"/>
		<path style="fill-rule:evenodd;clip-rule:evenodd;fill:#84ADFD;" d="M223.696,107.698c-0.146,2.433-0.387,4.851-0.884,7.243
			c-0.119,0.576-0.286,0.725-0.857,0.585c-3.761-0.926-7.527-1.833-11.412-2.07c-0.64-0.039-0.515-0.475-0.527-0.853
			c-0.215-6.569-1.089-13.041-2.82-19.391c-0.38-1.395-0.449-1.44-1.745-0.686c-5.617,3.269-10.803,7.117-15.488,11.623
			c-0.547,0.526-0.825,0.542-1.398,0.048c-2.794-2.408-5.94-4.311-9.085-6.212c-0.387-0.234-0.884-0.367-0.425-1.053
			c4.165-6.208,9.317-11.286,16.442-13.95c11.457-4.284,21.972,0.745,26.324,12.479C223.285,99.41,223.78,103.511,223.696,107.698z"
			/>
		<path style="fill-rule:evenodd;clip-rule:evenodd;fill:#84ADFD;" d="M122.341,106.144c0.025-4.643,0.962-9.531,3.4-14.073
			c4.697-8.747,13.502-12.485,23.006-9.683c7.123,2.102,12.422,6.705,16.799,12.512c0.6,0.793,1.584,1.703,1.513,2.48
			c-0.071,0.782-1.462,1.138-2.282,1.661c-2.526,1.612-5.08,3.187-7.319,5.196c-0.548,0.491-0.87,0.434-1.378-0.06
			c-4.635-4.508-9.811-8.305-15.373-11.585c-1.428-0.842-1.494-0.812-1.926,0.833c-1.62,6.166-2.615,12.423-2.672,18.809
			c-0.008,0.91-0.305,1.188-1.236,1.255c-3.557,0.255-7.014,1.116-10.456,1.993c-0.84,0.215-1.11,0.06-1.264-0.784
			C122.664,112.019,122.37,109.327,122.341,106.144z"/>
		<path style="fill-rule:evenodd;clip-rule:evenodd;fill:#84ADFD;" d="M106.786,224.061c-5.033,0.023-10.047-0.779-14.678-3.219
			c-10.156-5.35-13.671-15.814-8.907-26.408c2.86-6.365,7.569-11.094,13.261-14.959c0.649-0.441,0.86-0.137,1.166,0.367
			c1.95,3.209,3.909,6.418,6.4,9.25c0.496,0.563,0.178,0.775-0.163,1.131c-4.466,4.672-8.296,9.822-11.58,15.385
			c-0.896,1.519-0.886,1.519,0.844,1.994c6.195,1.699,12.521,2.516,18.925,2.74c0.855,0.029,1.024,0.309,1.084,1.096
			c0.268,3.555,1.113,7.014,1.986,10.457c0.217,0.85,0.121,1.168-0.813,1.336C111.867,223.674,109.41,223.928,106.786,224.061z"/>
		<path style="fill-rule:evenodd;clip-rule:evenodd;fill:#84ADFD;" d="M239.622,224.063c-2.673-0.092-5.415-0.326-8.12-0.9
			c-0.448-0.094-0.825-0.061-0.655-0.781c0.883-3.768,1.853-7.523,2.059-11.414c0.035-0.67,0.508-0.58,0.942-0.604
			c3.35-0.188,6.695-0.387,10.02-0.891c3.241-0.49,6.43-1.209,9.611-1.982c1.154-0.281,0.889-0.859,0.472-1.563
			c-2.535-4.266-5.312-8.361-8.561-12.121c-1.046-1.209-2.136-2.379-3.219-3.555c-0.348-0.377-0.597-0.656-0.133-1.184
			c2.436-2.775,4.35-5.916,6.229-9.074c0.426-0.717,0.693-0.945,1.511-0.387c6.11,4.176,11.098,9.32,13.671,16.381
			c2.514,6.896,2.072,13.547-2.716,19.436c-3.634,4.467-8.566,6.807-14.12,7.949C244.336,223.842,242.03,224.037,239.622,224.063z"
			/>
		<path style="fill-rule:evenodd;clip-rule:evenodd;fill:#84ADFD;" d="M203.753,265.246c-6.66-0.117-11.95-2.598-16.688-6.453
			c-3.062-2.49-5.588-5.463-7.818-8.705c-0.44-0.643-0.43-0.932,0.278-1.359c3.211-1.939,6.422-3.895,9.244-6.395
			c0.659-0.584,0.903-0.016,1.235,0.301c4.655,4.418,9.767,8.225,15.303,11.469c0.172,0.102,0.354,0.188,0.518,0.301
			c0.671,0.461,1.081,0.316,1.293-0.49c1.137-4.328,2.018-8.705,2.446-13.162c0.214-2.225,0.328-4.459,0.436-6.691
			c0.027-0.564,0.217-0.781,0.759-0.811c3.77-0.199,7.396-1.189,11.047-2.043c0.514-0.121,0.85-0.287,1.001,0.479
			c1.547,7.881,1.395,15.602-2.472,22.854C216.73,261.299,211.142,265.098,203.753,265.246z"/>
		<path style="fill-rule:evenodd;clip-rule:evenodd;fill:#84ADFD;" d="M122.348,240.887c0.02-3.563,0.33-6.295,0.835-9.01
			c0.126-0.676,0.351-0.809,1.033-0.646c3.686,0.881,7.367,1.814,11.176,2.01c0.734,0.037,0.699,0.496,0.703,0.984
			c0.053,6.506,1.076,12.875,2.701,19.158c0.398,1.539,0.483,1.576,1.879,0.76c5.574-3.262,10.725-7.088,15.393-11.555
			c0.396-0.379,0.665-0.711,1.265-0.186c2.84,2.479,6.063,4.41,9.273,6.357c0.422,0.258,0.798,0.402,0.366,1.045
			c-4.211,6.285-9.438,11.424-16.676,14.016c-7.475,2.676-14.513,1.883-20.482-3.762c-3.84-3.629-5.883-8.279-6.87-13.424
			C122.528,244.471,122.366,242.285,122.348,240.887z"/>
		<path style="fill-rule:evenodd;clip-rule:evenodd;fill:#84ADFD;" d="M239.799,122.687c6.595,0.059,12.759,1.518,18.02,5.73
			c6.678,5.348,8.834,13.641,5.69,22.183c-2.657,7.224-7.742,12.47-14.02,16.688c-0.436,0.292-0.661,0.267-0.938-0.186
			c-2.024-3.305-4.032-6.623-6.593-9.555c-0.467-0.535-0.074-0.754,0.221-1.063c4.268-4.47,7.968-9.37,11.145-14.669
			c1.57-2.619,1.398-2.234-1.236-2.918c-5.979-1.549-12.066-2.348-18.233-2.514c-0.677-0.018-0.911-0.248-0.949-0.883
			c-0.218-3.688-1.152-7.248-2.022-10.814c-0.189-0.769-0.117-1.034,0.699-1.179C234.302,123.027,237.03,122.692,239.799,122.687z"
			/>
		<path style="fill-rule:evenodd;clip-rule:evenodd;fill:#4A397F;" d="M149.864,229.242c0.303,4.775,2.496,8.389,5.669,11.488
			c0.446,0.436,0.317,0.672-0.068,1.035c-4.524,4.25-9.433,7.986-14.768,11.166c-0.622,0.371-0.839,0.43-1.056-0.412
			c-1.538-5.975-2.404-12.035-2.563-18.203c-0.02-0.773,0.18-1.014,0.979-1.008C142.37,233.338,146.349,232.305,149.864,229.242z"/>
		<path style="fill-rule:evenodd;clip-rule:evenodd;fill:#4A397F;" d="M196.175,117.488c-0.251-4.689-2.455-8.252-5.513-11.395
			c-0.282-0.289-0.733-0.495-0.183-1.021c4.727-4.521,9.921-8.412,15.654-11.727c1.078,3.682,1.727,7.365,2.23,11.077
			c0.355,2.614,0.498,5.249,0.607,7.885c0.021,0.517,0.211,1.138-0.748,1.118C203.78,113.334,199.686,114.365,196.175,117.488z"/>
		<path style="fill-rule:evenodd;clip-rule:evenodd;fill:#7FE4FF;" d="M196.149,229.24c3.545,3.209,7.689,4.088,12.089,4.16
			c0.576,0.008,0.728,0.193,0.755,0.756c0.193,3.859-1.473,15.172-2.88,19.193c-3.854-2.207-7.491-4.699-10.894-7.523
			c-1.535-1.275-2.982-2.652-4.501-3.947c-0.594-0.506-0.573-0.824-0.014-1.385C193.751,237.447,195.85,233.908,196.149,229.24z"/>
		<path style="fill-rule:evenodd;clip-rule:evenodd;fill:#7FE4FF;" d="M93.001,206.492c3.297-5.713,7.145-10.838,11.583-15.525
			c0.497-0.525,0.758-0.416,1.218,0.035c2.46,2.408,5.225,4.33,8.649,5.106c0.813,0.185,1.642,0.283,2.615,0.447
			c-1.89,2.125-3.029,4.541-3.606,7.236c-0.337,1.574-0.417,3.166-0.468,4.76c-0.017,0.531-0.117,0.813-0.729,0.791
			C105.777,209.111,99.386,208.27,93.001,206.492z"/>
		<path style="fill-rule:evenodd;clip-rule:evenodd;fill:#7FE4FF;" d="M149.849,117.426c-3.502-3.105-7.582-4.066-11.965-4.079
			c-0.6-0.002-0.82-0.13-0.807-0.798c0.123-6.25,1.027-12.385,2.583-18.434c0.184-0.715,0.399-0.697,0.947-0.371
			c5.374,3.188,10.316,6.941,14.864,11.225c0.625,0.588,0.2,0.837-0.159,1.215c-2.424,2.551-4.392,5.369-5.107,8.899
			C150.065,115.779,149.989,116.49,149.849,117.426z"/>
		<path style="fill-rule:evenodd;clip-rule:evenodd;fill:#4A397F;" d="M253.036,206.475c-3.711,1.09-7.431,1.738-11.177,2.244
			c-2.652,0.359-5.325,0.479-7.998,0.607c-0.654,0.031-0.798-0.166-0.824-0.785c-0.07-1.633-0.149-3.27-0.518-4.875
			c-0.597-2.604-1.677-4.971-3.598-7.105c2.348-0.252,4.474-0.77,6.445-1.846c1.879-1.025,3.514-2.354,5.028-3.838
			c0.356-0.35,0.546-0.455,0.931-0.049C245.831,195.563,249.73,200.744,253.036,206.475z"/>
		<path style="fill-rule:evenodd;clip-rule:evenodd;fill:#4A397F;" d="M116.968,150.158c-1.594,0.255-3.174,0.438-4.642,1.061
			c-2.457,1.04-4.613,2.527-6.469,4.436c-0.471,0.484-0.749,0.65-1.309,0.061c-4.276-4.508-7.979-9.44-11.154-14.775
			c-0.336-0.564-0.313-0.752,0.383-0.934c6.049-1.579,12.193-2.432,18.439-2.6c0.577-0.016,0.824,0.102,0.857,0.771
			C113.382,144.215,113.665,145.049,116.968,150.158z"/>
		<path style="fill-rule:evenodd;clip-rule:evenodd;fill:#7FE4FF;" d="M228.925,150.189c3.084-3.408,4.042-7.387,4.102-11.637
			c0.014-0.961,0.272-1.186,1.195-1.152c6.331,0.222,12.556,1.121,18.671,2.774c0.104,0.323-0.126,0.528-0.26,0.755
			c-3.18,5.386-6.941,10.331-11.222,14.891c-0.566,0.604-0.808,0.283-1.198-0.105c-2.508-2.49-5.351-4.418-8.874-5.156
			C230.607,150.405,229.86,150.33,228.925,150.189z"/>
		<path style="fill-rule:evenodd;clip-rule:evenodd;fill:#4A397F;" d="M128.535,154.92c-2.303-3.292-3.873-6.73-4.553-10.582
			c-1.638-9.277,3.562-17.756,12.312-19.761c6.298-1.442,12.016,0.185,17.315,3.645c0.296,0.192,0.59,0.388,0.983,0.646
			c0.412-2.168,0.904-4.219,1.741-6.158c2.101-4.862,5.304-8.746,10.241-10.912c6.912-3.033,14.75-0.892,19.696,5.201
			c2.793,3.441,4.387,7.381,5.123,11.736c0.582,0.002,0.911-0.455,1.325-0.715c5.355-3.373,11.06-4.913,17.359-3.339
			c7.133,1.782,12.087,8.104,12.227,15.467c0.091,4.784-1.199,9.146-3.738,13.168c-0.318,0.505-0.653,0.998-1.04,1.587
			c1.664,0.416,3.297,0.706,4.85,1.28c5.809,2.149,10.325,5.744,12.581,11.669c2.577,6.77,0.115,14.316-6,19.09
			c-3.359,2.621-7.182,4.084-11.452,4.826c1.423,2.1,2.715,4.213,3.495,6.566c2.159,6.514,2.015,12.811-2.474,18.371
			c-3.889,4.818-9.204,6.375-15.214,5.828c-4.152-0.377-7.876-1.945-11.281-4.313c-0.158-0.111-0.334-0.199-0.595-0.352
			c-0.65,3.494-1.676,6.764-3.607,9.701c-2.967,4.512-6.907,7.666-12.339,8.504c-6.377,0.984-11.484-1.494-15.602-6.246
			c-2.73-3.156-4.304-6.873-5.064-10.953c-0.059-0.313-0.157-0.617-0.26-1.008c-2.282,1.574-4.629,2.936-7.244,3.721
			c-6.229,1.869-12.219,1.58-17.502-2.584c-4.584-3.615-6.315-8.606-6.057-14.318c0.202-4.463,1.765-8.482,4.277-12.15
			c0.113-0.164,0.23-0.328,0.327-0.5c0.035-0.063,0.02-0.152,0.036-0.287c-3.897-0.666-7.533-1.988-10.741-4.367
			c-4.061-3.014-6.778-6.898-7.426-11.975c-0.764-5.988,1.532-10.869,5.907-14.832c3.185-2.885,6.987-4.569,11.191-5.379
			C127.686,155.129,128.032,155.037,128.535,154.92z"/>
		<path style="fill-rule:evenodd;clip-rule:evenodd;fill:#81AEFF;" d="M124.745,205.58c0.1-4.928,1.813-9.277,4.698-13.213
			c0.915-1.246,0.827-1.393-0.708-1.639c-5.897-0.949-10.974-3.389-14.573-8.328c-4.831-6.629-3.796-15.298,2.341-20.77
			c3.545-3.161,7.68-4.946,12.324-5.662c1.42-0.219,1.492-0.406,0.619-1.609c-3.274-4.508-5.111-9.466-4.602-15.115
			c0.784-8.695,8.096-14.781,16.83-14.131c4.647,0.346,8.752,2.012,12.459,4.766c1.025,0.762,1.275,0.654,1.469-0.598
			c0.839-5.418,2.947-10.211,7.174-13.84c6.961-5.979,16.442-5.139,22.394,1.879c2.926,3.449,4.597,7.435,5.224,11.887
			c0.189,1.343,0.431,1.444,1.552,0.627c4.61-3.359,9.688-5.258,15.463-4.611c9.651,1.08,14.575,9.15,13.804,17.428
			c-0.413,4.422-2.1,8.324-4.739,11.852c-0.751,1.004-0.617,1.252,0.665,1.452c5.592,0.872,10.524,3.066,14.124,7.571
			c5.51,6.896,4.737,15.65-1.788,21.605c-3.474,3.168-7.609,4.908-12.219,5.609c-0.421,0.064-0.947-0.057-1.17,0.424
			c-0.23,0.492,0.214,0.805,0.468,1.146c2.935,3.955,4.729,8.35,4.736,13.313c0.012,8.621-5.573,14.803-13.519,15.826
			c-5.826,0.75-10.94-1.092-15.618-4.426c-1.409-1.004-1.52-0.945-1.784,0.715c-0.92,5.775-3.325,10.756-8.101,14.32
			c-6.737,5.025-15.421,4.027-21.043-2.256c-3.17-3.545-4.901-7.707-5.617-12.348c-0.194-1.268-0.439-1.379-1.466-0.613
			c-4.017,2.996-8.48,4.775-13.532,4.801C131.454,221.686,124.601,214.719,124.745,205.58z"/>
		<path style="fill-rule:evenodd;clip-rule:evenodd;fill:#4A397F;" d="M208.967,188.256c2.156,2.275,3.967,4.498,5.279,7.076
			c2.15,4.223,3.156,8.621,1.814,13.309c-1.358,4.744-5.786,8.07-10.74,8.303c-6.616,0.309-11.866-2.586-16.556-6.865
			c-0.222-0.203-0.312-0.553-0.628-0.721c-0.369,2.195-0.434,4.254-0.878,6.266c-0.874,3.969-2.412,7.602-5.333,10.529
			c-5.547,5.557-13.29,5.299-18.439-0.646c-3.616-4.174-4.999-9.182-5.27-14.578c-0.021-0.398-0.026-0.799-0.051-1.197
			c-0.004-0.063-0.07-0.121-0.172-0.283c-1.617,1.488-3.255,2.93-5.114,4.08c-4.269,2.639-8.808,4.113-13.894,3.176
			c-5.499-1.016-9.429-5.715-9.58-11.316c-0.176-6.459,2.65-11.625,6.84-16.225c0.206-0.227,0.541-0.336,0.816-0.5
			c-0.072-0.117-0.144-0.236-0.215-0.354c-1.516-0.148-3.037-0.244-4.543-0.453c-4.03-0.559-7.745-1.935-10.922-4.531
			c-7.094-5.793-6.825-15.006,0.588-20.406c3.9-2.842,8.353-4.078,13.115-4.342c0.592-0.033,1.188-0.004,2.027-0.004
			c-0.813-0.931-1.488-1.68-2.137-2.454c-2.798-3.341-4.804-7.089-5.414-11.436c-1.049-7.477,2.607-13.696,10.247-14.81
			c4.764-0.693,9.071,0.824,13.073,3.324c1.857,1.161,3.512,2.59,5.266,4.227c0.063-2.841,0.303-5.449,1.03-7.98
			c0.997-3.465,2.558-6.619,5.199-9.158c5.155-4.959,12.136-4.969,17.269,0.005c3.446,3.341,5.124,7.55,5.836,12.196
			c0.238,1.555,0.323,3.133,0.494,4.865c1.85-1.732,3.662-3.283,5.728-4.494c3.435-2.016,7.073-3.281,11.134-3.098
			c7.419,0.335,12.392,5.982,11.801,13.41c-0.438,5.508-2.928,10.043-6.542,14.064c-0.333,0.369-0.672,0.733-1.17,1.276
			c3.467,0.044,6.617,0.421,9.641,1.521c3.084,1.123,5.839,2.752,8.048,5.233c5.058,5.682,3.988,13.718-2.506,18.503
			c-3.675,2.709-7.873,3.971-12.379,4.322C210.898,188.154,210.064,188.191,208.967,188.256z"/>
		<path style="fill-rule:evenodd;clip-rule:evenodd;fill:#DCFEFF;" d="M209.908,187.164c-0.644,0-1.085-0.018-1.523,0.004
			c-0.441,0.024-1.016-0.299-1.258,0.334c-0.208,0.545,0.316,0.764,0.614,1.051c1.703,1.646,3.252,3.422,4.51,5.43
			c2.506,4.002,3.978,8.26,3.121,13.07c-0.907,5.094-5.137,8.709-10.291,8.889c-6.078,0.209-10.938-2.457-15.304-6.34
			c-0.596-0.531-1.125-1.135-1.703-1.686c-0.245-0.232-0.435-0.631-0.88-0.482c-0.521,0.172-0.396,0.613-0.385,1.006
			c0.107,3.752-0.323,7.42-1.748,10.924c-1.082,2.662-2.574,5.039-4.782,6.936c-5.354,4.6-12.743,3.414-17.042-2.754
			c-3.021-4.334-4.031-9.23-4.053-14.406c-0.001-0.16,0.048-0.324,0.023-0.479c-0.065-0.402,0.24-0.938-0.302-1.176
			c-0.544-0.242-0.775,0.273-1.064,0.572c-2.721,2.818-5.771,5.166-9.452,6.604c-3.479,1.359-7.042,1.861-10.659,0.656
			c-5.075-1.693-8.016-6.869-7.25-12.502c0.77-5.65,3.66-10.135,7.607-14.057c0.142-0.141,0.311-0.254,0.448-0.396
			c0.241-0.252,0.609-0.479,0.402-0.904c-0.193-0.398-0.592-0.328-0.951-0.313c-2.246,0.107-4.477-0.049-6.679-0.492
			c-3.823-0.768-7.352-2.18-10.176-4.971c-5.652-5.586-5.015-13.256,1.462-17.928c4.506-3.25,9.639-4.266,15.069-4.222
			c0.453,0.003,1.057,0.269,1.274-0.321c0.209-0.566-0.401-0.795-0.725-1.115c-3.809-3.751-6.744-8.018-7.607-13.416
			c-1.482-9.273,5.445-15.654,14.625-13.568c4.973,1.13,8.975,3.842,12.489,7.412c0.324,0.33,0.54,1.057,1.203,0.715
			c0.526-0.272,0.271-0.864,0.267-1.317c-0.05-5.479,0.992-10.657,4.355-15.137c1.927-2.565,4.402-4.421,7.637-5.001
			c4.323-0.776,7.766,0.963,10.541,4.095c3.676,4.147,4.94,9.202,5.089,14.612c0.016,0.6,0.002,1.2-0.006,1.8
			c-0.006,0.354-0.128,0.759,0.28,0.962c0.477,0.236,0.739-0.156,0.996-0.444c1.417-1.591,3.037-2.954,4.78-4.161
			c3.348-2.321,7.002-3.893,11.134-3.896c7.843-0.006,12.801,6.027,11.469,13.799c-0.931,5.432-3.777,9.765-7.644,13.531
			c-0.322,0.313-0.914,0.537-0.693,1.136c0.239,0.646,0.832,0.31,1.263,0.306c5.392-0.042,10.509,0.945,14.963,4.183
			c3.069,2.231,5.182,5.161,5.392,9.061c0.244,4.535-2.072,7.857-5.594,10.387C219.153,186.027,214.557,187.066,209.908,187.164z"/>
		<path style="fill-rule:evenodd;clip-rule:evenodd;fill:#4A397F;" d="M184.192,200.34c-0.438,2.023-1.106,3.836-2.102,5.551
			c-0.427,0.736-0.506,1.672-0.747,2.516c-1.545,5.402-4.158,10.264-7.485,14.762c-0.725,0.98-0.921,0.965-1.657-0.016
			c-3.757-5.008-6.538-10.484-8-16.598c-0.037-0.154-0.063-0.322-0.141-0.455c-1.018-1.77-1.837-3.619-2.134-5.525
			c-5.441,1.949-10.236,5.123-15.691,6.826c-2.6,0.813-5.262,1.314-7.938,1.779c-1.003,0.172-1.242-0.178-1.09-1.182
			c0.935-6.186,2.905-11.979,6.043-17.42c1.076-1.865,1.384-4.148,2.705-5.865c-4.219-1.809-8.56-3.1-12.766-4.756
			c-3.588-1.412-6.836-3.447-9.931-5.73c-1.047-0.773-1.043-0.928,0.025-1.727c4.978-3.721,10.419-6.484,16.487-7.946
			c0.232-0.056,0.486-0.097,0.681-0.222c1.668-1.064,3.509-1.693,5.62-2.154c-1.938-2.48-2.388-5.506-3.891-8.101
			c-2.793-4.819-4.227-10.142-5.004-15.644c-0.13-0.916,0.315-1.023,1.044-0.913c6.095,0.929,11.896,2.708,17.206,5.917
			c0.586,0.355,1.201,0.594,1.869,0.767c1.596,0.415,3.029,1.21,4.645,2.238c0.146-2.902,1.962-5.069,2.648-7.704
			c1.459-5.591,4.184-10.59,7.605-15.225c0.576-0.779,0.965-0.889,1.602-0.03c3.7,4.991,6.513,10.403,7.982,16.472
			c0.075,0.309,0.139,0.643,0.304,0.904c1.054,1.675,1.688,3.51,2.049,5.285c5.682-2.043,10.73-5.454,16.562-7.096
			c2.389-0.672,4.818-1.113,7.257-1.535c1.091-0.188,0.98,0.525,0.879,1.176c-0.559,3.598-1.369,7.133-2.711,10.529
			c-0.352,0.889-0.647,1.817-1.125,2.638c-1.905,3.274-3.06,6.905-4.934,10.435c2.648,0.129,4.716,1.883,7.224,2.531
			c5.719,1.48,10.825,4.227,15.572,7.696c0.787,0.575,0.873,0.999,0.035,1.622c-4.959,3.68-10.339,6.475-16.362,7.961
			c-0.348,0.086-0.734,0.133-1.022,0.322c-1.666,1.086-3.521,1.674-5.274,2.055c2.033,5.592,5.363,10.59,7.031,16.33
			c0.694,2.385,1.122,4.818,1.574,7.25c0.195,1.049-0.251,1.266-1.172,1.123c-5.401-0.84-10.589-2.35-15.413-4.967
			c-1.436-0.777-2.837-1.582-4.441-2.014C186.539,201.859,185.424,201.113,184.192,200.34z"/>
		<path style="fill-rule:evenodd;clip-rule:evenodd;fill:#80AEFF;" d="M201.661,154.084c-0.018,2.863-1.039,5.377-2.668,7.68
			c-0.72,1.02-0.657,1.188,0.548,1.403c2.86,0.511,5.428,1.612,7.501,3.71c3.889,3.934,3.65,9.861-0.525,13.484
			c-1.954,1.697-4.232,2.682-6.754,3.143c-1.51,0.275-1.541,0.35-0.634,1.664c1.928,2.795,2.98,5.85,2.379,9.266
			c-0.907,5.15-5.465,8.297-10.643,7.49c-2.302-0.359-4.357-1.256-6.244-2.592c-1.056-0.748-1.242-0.645-1.452,0.666
			c-0.482,3.01-1.715,5.668-4.007,7.711c-4.22,3.76-10.063,3.117-13.597-1.406c-1.461-1.871-2.287-4.004-2.714-6.316
			c-0.251-1.363-0.374-1.406-1.548-0.578c-2.707,1.906-5.688,3.004-9.01,2.506c-5.791-0.871-8.984-5.891-7.639-11.773
			c0.426-1.855,1.232-3.531,2.329-5.078c0.813-1.145,0.735-1.309-0.61-1.543c-2.482-0.438-4.75-1.355-6.683-3.021
			c-4.668-4.023-4.616-10.404,0.112-14.365c1.952-1.637,4.225-2.527,6.705-2.957c1.198-0.209,1.282-0.404,0.541-1.427
			c-1.461-2.013-2.333-4.232-2.639-6.714c-0.738-5.986,4.29-11.026,10.274-10.292c2.44,0.3,4.627,1.159,6.62,2.571
			c1.17,0.828,1.297,0.777,1.553-0.597c0.6-3.243,1.904-6.106,4.592-8.152c4.046-3.081,9.075-2.57,12.483,1.216
			c1.788,1.986,2.814,4.334,3.24,6.955c0.211,1.303,0.393,1.388,1.459,0.648c2.74-1.901,5.707-3.06,9.105-2.558
			C198.656,145.554,201.679,149.122,201.661,154.084z"/>
		<path style="fill-rule:evenodd;clip-rule:evenodd;fill:#DBDCFA;" d="M153.619,203.104c-3.229,1.836-6.469,3.018-9.811,3.912
			c-1.573,0.422-3.195,0.664-4.793,0.994c-0.576,0.119-0.783-0.029-0.674-0.666c0.861-5.018,2.338-9.824,4.895-14.553
			C143.87,199.1,147.186,202.529,153.619,203.104z"/>
		<path style="fill-rule:evenodd;clip-rule:evenodd;fill:#DBDCFA;" d="M192.311,143.643c4.866-2.633,9.713-4.141,14.79-4.957
			c0.419-0.066,0.683-0.049,0.595,0.523c-0.782,5.119-2.344,9.975-4.98,14.891c-0.117-3.107-0.987-5.569-2.956-7.524
			C197.807,144.637,195.365,143.787,192.311,143.643z"/>
		<path style="fill-rule:evenodd;clip-rule:evenodd;fill:#DBDCFA;" d="M202.686,192.602c0.456,0.84,0.778,1.371,1.042,1.928
			c1.868,3.949,3.173,8.078,3.878,12.393c0.1,0.611,0.364,1.291-0.8,1.084c-4.777-0.85-9.373-2.229-13.678-4.504
			c-0.168-0.09-0.389-0.113-0.448-0.453c2.74-0.129,5.208-0.99,7.15-2.977C201.746,198.111,202.637,195.693,202.686,192.602z"/>
		<path style="fill-rule:evenodd;clip-rule:evenodd;fill:#DBDCFA;" d="M143.304,154.068c-2.621-4.848-4.129-9.681-4.957-14.744
			c-0.081-0.498-0.022-0.757,0.578-0.656c5.092,0.853,9.96,2.363,14.793,4.969c-3.028,0.154-5.502,0.994-7.464,2.967
			C144.307,148.563,143.447,151.006,143.304,154.068z"/>
		<path style="fill-rule:evenodd;clip-rule:evenodd;fill:#883CB8;" d="M180.378,208.072c-1.276,4.229-2.992,7.924-5.23,11.379
			c-0.52,0.803-1.099,1.57-1.596,2.387c-0.414,0.678-0.651,0.529-1.059-0.031c-2.711-3.736-4.836-7.773-6.342-12.137
			c-0.127-0.365-0.266-0.725-0.355-1.252c2.189,1.549,4.468,2.803,7.251,2.771C175.829,211.158,178.112,210.016,180.378,208.072z"/>
		<path style="fill-rule:evenodd;clip-rule:evenodd;fill:#883CB8;" d="M208.053,166.258c5.136,1.352,9.714,3.846,13.979,6.989
			c-2.005,2.284-10.226,6.55-14.05,7.304C211.73,174.684,211.738,170.441,208.053,166.258z"/>
		<path style="fill-rule:evenodd;clip-rule:evenodd;fill:#883CB8;" d="M173.001,124.228c3.303,4.328,5.728,8.99,7.308,14.206
			c-6.55-3.922-8.783-3.923-14.592,0.043C167.295,133.224,169.735,128.601,173.001,124.228z"/>
		<path style="fill-rule:evenodd;clip-rule:evenodd;fill:#883CB8;" d="M137.835,166.28c-3.553,4.698-3.607,9.337-0.068,14.083
			c-5.104-1.342-9.59-3.82-13.883-6.975C128.128,170.135,132.7,167.742,137.835,166.28z"/>
		<path style="fill-rule:evenodd;clip-rule:evenodd;fill:#4A397F;" d="M151.039,182.439c-2.394-0.105-4.425-0.461-6.338-1.318
			c-2.257-1.012-4.12-2.49-5.174-4.77c-1.517-3.282-0.425-6.919,2.745-9.315c2.512-1.898,5.422-2.632,8.703-2.755
			c-0.484-0.61-0.902-1.115-1.295-1.637c-1.742-2.316-2.931-4.854-2.941-7.814c-0.02-5.16,4.066-8.561,9.148-7.677
			c2.757,0.479,5.121,1.731,7.234,3.518c0.23,0.196,0.456,0.4,0.799,0.701c0.12-2.403,0.509-4.575,1.475-6.619
			c0.858-1.814,2.062-3.328,3.758-4.41c3.087-1.971,7.108-1.31,9.637,1.586c1.934,2.213,2.884,4.844,3.188,7.736
			c0.049,0.471,0.099,0.941,0.173,1.648c0.516-0.424,0.891-0.738,1.27-1.047c2.026-1.641,4.301-2.748,6.893-3.137
			c5.767-0.865,10.021,3.75,8.833,9.537c-0.588,2.863-2.03,5.258-4.081,7.525c1.029,0.137,1.916,0.219,2.789,0.376
			c2.859,0.514,5.442,1.589,7.371,3.866c2.896,3.42,2.544,7.818-0.86,10.762c-2.258,1.951-4.938,2.867-7.873,3.148
			c-0.414,0.041-0.887-0.141-1.308,0.287c1.431,1.67,2.701,3.438,3.438,5.541c0.735,2.098,0.962,4.219,0.328,6.355
			c-1.117,3.77-5.046,5.832-9.198,4.969c-2.864-0.594-5.266-2.012-7.488-4.027c-0.42,1.045-0.285,2.088-0.495,3.068
			c-0.39,1.82-1.033,3.52-2.059,5.068c-3.413,5.164-9.838,5.199-13.334,0.076c-1.483-2.174-2.196-4.541-2.463-8.27
			c-0.599,0.475-1.139,0.92-1.693,1.344c-2.006,1.533-4.227,2.617-6.759,2.836c-6.18,0.535-10.011-4.189-8.407-10.262
			C147.734,186.76,149.122,184.604,151.039,182.439z"/>
		<path style="fill-rule:evenodd;clip-rule:evenodd;fill:#7FE4FF;" d="M194.961,181.426c-0.47,0.234-1.395-0.516-1.693,0.344
			c-0.262,0.75,0.664,1.084,1.097,1.557c2.214,2.426,3.848,5.133,3.916,8.51c0.092,4.531-3.547,7.51-8.024,6.699
			c-3.116-0.563-5.619-2.184-7.822-4.363c-0.293-0.289-0.497-0.832-1.05-0.59c-0.535,0.236-0.324,0.77-0.319,1.178
			c0.031,2.941-0.547,5.717-2.182,8.207c-3.068,4.672-8.659,4.678-11.728,0.004c-1.656-2.525-2.217-5.354-2.203-8.33
			c0.002-0.371,0.203-0.848-0.294-1.053c-0.468-0.193-0.722,0.205-0.994,0.488c-2.067,2.145-4.453,3.756-7.419,4.359
			c-5.651,1.15-9.622-3.018-8.242-8.631c0.68-2.764,2.214-5.012,4.182-7.008c0.289-0.293,0.85-0.492,0.645-1.035
			c-0.233-0.617-0.822-0.344-1.264-0.342c-2.98,0.004-5.795-0.592-8.297-2.293c-4.449-3.023-4.494-8.367-0.097-11.455
			c2.517-1.767,5.374-2.355,8.392-2.39c0.438-0.005,1.035,0.288,1.264-0.337c0.197-0.539-0.371-0.738-0.657-1.031
			c-2.131-2.188-3.833-4.625-4.285-7.721c-0.816-5.586,3.259-9.217,8.729-7.838c2.761,0.695,5.011,2.216,6.985,4.211
			c0.285,0.287,0.52,0.834,1.057,0.583c0.513-0.239,0.287-0.767,0.29-1.185c0.022-2.971,0.595-5.788,2.271-8.308
			c2.97-4.462,8.357-4.558,11.459-0.186c1.78,2.507,2.405,5.352,2.39,8.381c-0.003,0.449-0.238,1.045,0.314,1.303
			c0.604,0.282,0.806-0.373,1.119-0.678c2.258-2.183,4.782-3.842,7.972-4.309c4.937-0.723,8.637,3.1,7.726,8.001
			c-0.52,2.8-1.875,5.153-3.826,7.19c-0.249,0.26-0.509,0.508-0.765,0.762c-0.259,0.258-0.536,0.52-0.347,0.93
			c0.18,0.39,0.547,0.244,0.847,0.24c2.341-0.021,4.622,0.285,6.779,1.248c1.287,0.574,2.448,1.332,3.406,2.391
			c2.524,2.79,2.499,6.338-0.145,9.018C201.662,180.463,198.491,181.26,194.961,181.426z"/>
		<path style="fill-rule:evenodd;clip-rule:evenodd;fill:#4A397F;" d="M158.059,179.531c-5.57-0.283-10.331-2.139-14.621-5.283
			c-1.133-0.829-1.137-0.95-0.002-1.779c4.295-3.137,9.063-4.992,14.455-5.283c-0.044-0.49-0.449-0.732-0.707-1.045
			c-3.164-3.826-4.969-8.241-5.706-13.117c-0.198-1.308-0.118-1.385,1.227-1.189c4.758,0.693,9.064,2.455,12.826,5.486
			c0.393,0.315,0.781,0.635,1.297,1.054c0.238-4.057,1.275-7.739,3.133-11.186c0.666-1.233,1.43-2.402,2.262-3.526
			c0.719-0.971,0.908-0.965,1.645,0.049c3.144,4.319,5.061,9.094,5.303,14.475c0.383,0.098,0.534-0.197,0.727-0.363
			c3.93-3.375,8.512-5.258,13.599-6.043c1.038-0.16,1.26,0.131,1.105,1.133c-0.822,5.334-2.887,10.086-6.623,14.242
			c3.289,0.227,6.33,0.893,9.224,2.184c1.869,0.834,3.623,1.852,5.28,3.047c1.252,0.902,1.257,1.062,0.039,1.936
			c-4.282,3.072-9.001,4.945-14.315,5.195c-0.152,0.352,0.171,0.5,0.333,0.688c3.423,3.953,5.267,8.605,6.097,13.713
			c0.16,0.99-0.225,1.16-1.133,1.021c-5.342-0.814-10.111-2.855-14.309-6.656c-0.109,2.275-0.459,4.328-1.063,6.332
			c-0.932,3.09-2.436,5.885-4.324,8.49c-0.605,0.836-1.046,0.764-1.623-0.039c-3.127-4.346-5.049-9.129-5.336-14.502
			c-0.33-0.195-0.441,0.119-0.588,0.246c-3.977,3.461-8.65,5.342-13.807,6.162c-0.886,0.141-1.14-0.146-1.012-1.037
			c0.707-4.932,2.508-9.385,5.674-13.258C157.388,180.344,157.661,180.014,158.059,179.531z"/>
		<path style="fill-rule:evenodd;clip-rule:evenodd;fill:#DBDCFA;" d="M187.295,173.419c-0.023,7.913-6.445,14.276-14.364,14.233
			c-7.879-0.045-14.293-6.537-14.234-14.41c0.057-7.794,6.544-14.209,14.35-14.191C180.946,159.07,187.316,165.494,187.295,173.419z
			"/>
		<path style="fill-rule:evenodd;clip-rule:evenodd;fill:#DBDCFA;" d="M187.498,178.508c1.095-3.459,1.125-6.828,0.02-10.191
			c3.791-0.461,10.976,2.063,14.464,5.096C197.658,176.535,192.938,178.385,187.498,178.508z"/>
		<path style="fill-rule:evenodd;clip-rule:evenodd;fill:#80AEFF;" d="M173.018,202.377c-3.202-4.361-4.969-9.084-5.166-14.529
			c3.453,1.072,6.843,1.131,10.314-0.021C178.018,193.287,176.222,198.023,173.018,202.377z"/>
		<path style="fill-rule:evenodd;clip-rule:evenodd;fill:#DCFEFF;" d="M166.366,159.518c-3.012,1.521-5.355,3.734-6.92,6.713
			c-0.384,0.729-0.61,0.213-0.832-0.035c-1.313-1.459-2.438-3.054-3.352-4.793c-1.307-2.487-2.189-5.117-2.674-7.888
			c-0.097-0.552-0.061-0.683,0.556-0.597C157.764,153.557,163.29,156.279,166.366,159.518z"/>
		<path style="fill-rule:evenodd;clip-rule:evenodd;fill:#883CB8;" d="M158.542,178.51c-5.471-0.152-10.211-1.961-14.537-5.156
			c4.083-3.016,8.559-4.754,13.546-5.119c0.348-0.025,1.109-0.355,0.816,0.611C157.401,172.035,157.505,175.221,158.542,178.51z"/>
		<path style="fill-rule:evenodd;clip-rule:evenodd;fill:#80AEFF;" d="M173.011,144.323c3.19,4.362,5.008,9.095,5.162,14.554
			c-3.334-1.033-6.555-1.132-9.783-0.138c-0.773,0.237-0.523-0.378-0.502-0.7c0.285-4.352,1.625-8.357,3.98-12.023
			C172.212,145.48,172.581,144.959,173.011,144.323z"/>
		<path style="fill-rule:evenodd;clip-rule:evenodd;fill:#DBDCFA;" d="M166.429,187.225c-3.777,3.615-8.207,5.621-13.167,6.564
			c-0.516,0.098-0.798,0.129-0.665-0.613c0.844-4.691,2.708-8.885,5.877-12.475c0.416-0.471,0.655-0.85,1.126,0.041
			C161.115,183.609,163.421,185.705,166.429,187.225z"/>
		<path style="fill-rule:evenodd;clip-rule:evenodd;fill:#883CB8;" d="M186.877,166.768c-1.603-3.238-3.966-5.586-7.179-7.234
			c0.824-1.016,1.81-1.723,2.802-2.411c3.124-2.169,6.583-3.505,10.317-4.194c0.73-0.135,0.732,0.127,0.634,0.65
			C192.516,158.543,190.509,162.977,186.877,166.768z"/>
		<path style="fill-rule:evenodd;clip-rule:evenodd;fill:#DCFEFF;" d="M179.574,187.355c4.602-3.107,5.179-3.689,7.335-7.367
			c3.313,3.436,5.317,7.521,6.325,12.131c0.403,1.842,0.386,1.863-1.412,1.469c-4.323-0.945-8.212-2.771-11.535-5.734
			C180.083,187.67,179.836,187.535,179.574,187.355z"/>
		<path style="fill-rule:evenodd;clip-rule:evenodd;fill:#4A397F;" d="M184.654,173.369c0.002,6.504-5.236,11.684-11.77,11.639
			c-6.341-0.043-11.536-5.291-11.542-11.66c-0.005-6.426,5.33-11.695,11.803-11.654
			C179.499,161.732,184.653,166.961,184.654,173.369z"/>
		<path style="fill-rule:evenodd;clip-rule:evenodd;fill:#80AEFF;" d="M183.654,173.284c0.036,5.829-4.767,10.679-10.616,10.72
			c-5.766,0.041-10.598-4.768-10.617-10.566c-0.02-5.947,4.801-10.786,10.697-10.737
			C178.815,162.748,183.618,167.572,183.654,173.284z"/>
	</g>
	<g>
		<path style="fill-rule:evenodd;clip-rule:evenodd;fill:#84ADFD;" d="M141.655,4.732c0.936,0.66,1.703,1.43,1.6,2.698
			c-0.094,1.144-0.974,2.095-2.102,2.308c-1.056,0.199-2.189-0.381-2.68-1.371c-0.521-1.053-0.279-2.244,0.572-3.057
			c0.22-0.209,0.609-0.213,0.689-0.578C140.375,4.732,141.015,4.732,141.655,4.732z"/>
		<path style="fill-rule:evenodd;clip-rule:evenodd;fill:#84ADFD;" d="M4.375,204.652c0.606-0.715,1.142-1.502,2.229-1.564
			c1.265-0.074,2.296,0.563,2.686,1.74c0.377,1.137-0.115,2.383-1.174,2.973c-1.051,0.586-2.315,0.352-3.162-0.539
			c-0.209-0.221-0.213-0.609-0.579-0.689C4.375,205.932,4.375,205.291,4.375,204.652z"/>
		<path style="fill-rule:evenodd;clip-rule:evenodd;fill:#84ADFD;" d="M341.6,140.322c0.071,0.002,0.143,0.005,0.214,0.01
			c0,0.4,0,0.8,0,1.199l-0.097,0.033l-0.1-0.018C341.219,141.145,341.228,140.735,341.6,140.322z"/>
		<path style="fill-rule:evenodd;clip-rule:evenodd;fill:#84ADFD;" d="M204.535,342.172c0.033-0.076,0.028-0.148-0.014-0.221
			c0.418-0.367,0.83-0.377,1.236,0.022c-0.005,0.066-0.013,0.133-0.023,0.199C205.335,342.172,204.934,342.172,204.535,342.172z"/>
		<path style="fill-rule:evenodd;clip-rule:evenodd;fill:#84ADFD;" d="M341.368,206.963c0.028,1.613-1.093,2.848-2.587,2.844
			c-1.382-0.004-2.495-1.104-2.524-2.494c-0.034-1.596,1.12-2.875,2.58-2.859C340.202,204.467,341.344,205.6,341.368,206.963z"/>
		<path style="fill-rule:evenodd;clip-rule:evenodd;fill:#84ADFD;" d="M311.574,79.959c-0.013-1.417,1.025-2.507,2.426-2.546
			c1.458-0.041,2.596,1.043,2.614,2.491c0.02,1.43-1.123,2.563-2.566,2.547C312.64,82.437,311.588,81.377,311.574,79.959z"/>
		<path style="fill-rule:evenodd;clip-rule:evenodd;fill:#84ADFD;" d="M82.173,32.304c-0.022,1.453-1.154,2.515-2.633,2.468
			c-1.378-0.045-2.474-1.191-2.441-2.559c0.031-1.368,1.162-2.475,2.534-2.481C81.063,29.725,82.195,30.871,82.173,32.304z"/>
		<path style="fill-rule:evenodd;clip-rule:evenodd;fill:#84ADFD;" d="M34.409,266.709c-0.023,1.381-1.136,2.49-2.511,2.502
			c-1.417,0.012-2.589-1.164-2.563-2.574c0.026-1.422,1.186-2.502,2.643-2.465C33.38,264.207,34.431,265.305,34.409,266.709z"/>
		<path style="fill-rule:evenodd;clip-rule:evenodd;fill:#84ADFD;" d="M141.693,339.082c0.024,1.387-1.075,2.56-2.436,2.603
			c-1.428,0.047-2.605-1.111-2.602-2.553c0.003-1.406,1.097-2.51,2.496-2.518C140.581,336.605,141.669,337.662,141.693,339.082z"/>
		<path style="fill-rule:evenodd;clip-rule:evenodd;fill:#84ADFD;" d="M313.17,270.652c-1.388-0.025-2.507-1.152-2.506-2.521
			c0.001-1.404,1.19-2.541,2.634-2.52c1.389,0.022,2.477,1.133,2.475,2.523C315.77,269.574,314.628,270.678,313.17,270.652z"/>
		<path style="fill-rule:evenodd;clip-rule:evenodd;fill:#84ADFD;" d="M206.747,10.053c-1.43,0.009-2.517-1.025-2.551-2.426
			c-0.034-1.422,1.104-2.601,2.52-2.615c1.402-0.012,2.602,1.191,2.575,2.583C209.265,8.969,208.152,10.043,206.747,10.053z"/>
		<path style="fill-rule:evenodd;clip-rule:evenodd;fill:#84ADFD;" d="M341.6,140.322c0.006,0.408,0.012,0.816,0.018,1.225
			c-0.464,2.187-3.177,2.482-4.339,1.183c-0.951-1.064-0.896-2.702,0.18-3.641c1.116-0.974,2.837-0.802,3.7,0.389
			C341.344,139.732,341.455,140.039,341.6,140.322z"/>
		<path style="fill-rule:evenodd;clip-rule:evenodd;fill:#84ADFD;" d="M266.31,317.012c-1.491,0.012-2.508-0.961-2.535-2.424
			c-0.028-1.447,1.124-2.635,2.534-2.613c1.36,0.02,2.498,1.18,2.505,2.557C268.822,315.953,267.765,317.002,266.31,317.012z"/>
		<path style="fill-rule:evenodd;clip-rule:evenodd;fill:#84ADFD;" d="M205.758,341.973c-0.412-0.008-0.824-0.014-1.236-0.022
			c-1.349-0.586-1.957-1.398-1.859-2.58c0.094-1.139,0.672-1.941,1.801-2.26c1.383-0.391,2.772,0.346,3.146,1.639
			C208.023,340.174,207.323,341.392,205.758,341.973z"/>
		<path style="fill-rule:evenodd;clip-rule:evenodd;fill:#84ADFD;" d="M32.737,76.211c1.408,0.003,2.543,1.095,2.554,2.461
			c0.012,1.377-1.253,2.619-2.622,2.577c-1.344-0.042-2.49-1.241-2.475-2.591C30.211,77.251,31.294,76.209,32.737,76.211z"/>
		<path style="fill-rule:evenodd;clip-rule:evenodd;fill:#84ADFD;" d="M7.172,137.016c1.319-0.037,2.535,1.129,2.593,2.486
			c0.059,1.351-1.055,2.554-2.424,2.621c-1.387,0.066-2.67-1.143-2.675-2.52C4.661,138.262,5.833,137.053,7.172,137.016z"/>
		<path style="fill-rule:evenodd;clip-rule:evenodd;fill:#84ADFD;" d="M80.813,313.715c-0.054,1.4-1.179,2.451-2.586,2.414
			c-1.396-0.035-2.472-1.158-2.45-2.557c0.023-1.439,1.215-2.551,2.654-2.477C79.834,311.166,80.866,312.301,80.813,313.715z"/>
		<path style="fill-rule:evenodd;clip-rule:evenodd;fill:#84ADFD;" d="M270.165,33.076c-0.028,1.387-1.162,2.496-2.542,2.488
			c-1.351-0.007-2.546-1.183-2.557-2.513c-0.011-1.418,1.171-2.549,2.633-2.519C269.1,30.562,270.194,31.69,270.165,33.076z"/>
	</g>
	<g>
		<path style="fill-rule:evenodd;clip-rule:evenodd;fill:#4A397F;" d="M191.052,171.994c0.855,0.1,1.448,0.513,1.482,1.486
			c0.033,0.971-0.528,1.477-1.417,1.598c-0.816,0.109-1.708-0.721-1.635-1.537C189.561,172.656,190.059,172.085,191.052,171.994z"/>
		<path style="fill-rule:evenodd;clip-rule:evenodd;fill:#4A397F;" d="M174.334,191.373c-0.086,0.887-0.52,1.471-1.483,1.516
			c-0.907,0.041-1.598-0.656-1.553-1.568c0.045-0.953,0.612-1.498,1.52-1.482C173.713,189.854,174.264,190.408,174.334,191.373z"/>
		<path style="fill-rule:evenodd;clip-rule:evenodd;fill:#4A397F;" d="M161.934,160.582c-0.064,0.789-0.472,1.373-1.458,1.39
			c-0.954,0.017-1.489-0.476-1.571-1.407c-0.078-0.875,0.654-1.617,1.527-1.613C161.28,158.955,161.917,159.596,161.934,160.582z"/>
		<path style="fill-rule:evenodd;clip-rule:evenodd;fill:#4A397F;" d="M156.552,173.189c-0.111,0.853-0.532,1.436-1.506,1.463
			c-0.902,0.025-1.656-0.682-1.58-1.549c0.082-0.92,0.65-1.494,1.559-1.477C155.919,171.645,156.471,172.199,156.552,173.189z"/>
		<path style="fill-rule:evenodd;clip-rule:evenodd;fill:#4A397F;" d="M173.329,153.811c0.762,0.133,1.368,0.558,1.402,1.516
			c0.031,0.891-0.721,1.633-1.588,1.553c-0.926-0.084-1.445-0.643-1.474-1.564C171.645,154.502,172.404,153.804,173.329,153.811z"/>
		<path style="fill-rule:evenodd;clip-rule:evenodd;fill:#4A397F;" d="M160.252,184.443c0.886,0.064,1.383,0.594,1.382,1.523
			c0,0.953-0.566,1.447-1.49,1.486c-0.906,0.039-1.588-0.682-1.512-1.588C158.708,184.934,159.235,184.447,160.252,184.443z"/>
		<path style="fill-rule:evenodd;clip-rule:evenodd;fill:#4A397F;" d="M185.911,159.25c0.981,0.011,1.496,0.614,1.511,1.488
			c0.015,0.893-0.552,1.478-1.489,1.539c-0.891,0.059-1.575-0.662-1.559-1.573C184.39,159.852,185.035,159.241,185.911,159.25z"/>
		<path style="fill-rule:evenodd;clip-rule:evenodd;fill:#4A397F;" d="M184.093,186.441c0.008-1.105,0.7-1.797,1.596-1.742
			c0.948,0.057,1.442,0.637,1.492,1.539c0.045,0.828-0.812,1.646-1.627,1.561C184.656,187.707,184.1,187.215,184.093,186.441z"/>
	</g>
	<g>
		<path style="fill-rule:evenodd;clip-rule:evenodd;fill:#4A397F;" d="M289.755,124.995c6.729-5.583,9.256-12.907,10.521-20.843
			c0.849-5.33,0.975-10.738,1.703-16.082c0.095-0.695-0.133-1.018-0.799-1.191c-5.708-1.493-11.203-3.718-16.991-4.938
			c-0.578-0.121-1.473-2.34-1.154-2.824c0.223-0.34,0.51-0.061,0.749-0.019c3.231,0.565,6.332,1.626,9.466,2.558
			c3.209,0.954,6.35,2.164,9.694,2.604c0.987,0.131,1.986,0.168,3.092,0.257c-0.638,1.662-1.228,3.373-1.428,5.176
			c-0.487,4.406-0.891,8.822-1.439,13.221c-0.465,3.726-1.161,7.411-2.559,10.929c-1.176,2.96-2.733,5.673-4.973,7.965
			c-0.281,0.288-0.615,0.553-0.396,1.021c0.18,0.384,0.55,0.254,0.848,0.259c4.471,0.07,8.522,1.531,12.356,3.713
			c4.928,2.803,9.147,6.555,13.507,10.117c2.469,2.017,4.928,4.038,8.027,5.195c-3.542,3.393-5.296,7.828-7.561,11.939
			c-1.327,2.41-2.569,4.867-4.091,7.168c-0.238,0.359-0.479,0.719-0.718,1.075c-0.146-0.079-0.217-0.101-0.262-0.146
			c-1.353-1.384-1.315-2.617-0.189-4.313c2.96-4.456,5.001-9.441,7.681-14.067c0.247-0.426,0.329-0.786-0.137-1.143
			c-5.046-3.855-9.608-8.324-14.929-11.83c-4.304-2.836-8.873-5.05-14.069-5.707C293.844,124.853,291.978,124.896,289.755,124.995z"
			/>
		<path style="fill-rule:evenodd;clip-rule:evenodd;fill:#4A397F;" d="M162.015,317.81c-6.374,4.775-14.269,6.953-20.241,12.365
			c-2.398-5.541-6.851-9.603-10.44-14.299c-3.262-4.268-6.299-8.645-7.771-13.91c-0.521-1.859-0.762-3.75-0.826-5.672
			c-0.01-0.322,0.026-0.658-0.369-0.789c-0.321-0.107-0.524,0.098-0.727,0.297c-4.43,4.395-10.046,6.174-15.982,7.238
			c-4.885,0.877-9.846,1.068-14.762,1.662c-2.299,0.277-4.545,0.762-6.731,1.713c-0.069-5.955-2.565-11.227-4.024-16.75
			c-0.488-1.852-0.934-3.713-1.369-5.576c-0.051-0.215-0.344-0.523,0.063-0.721c0.524-0.254,2.654,0.578,2.766,1.107
			c1.16,5.477,3.184,10.699,4.699,16.07c0.521,1.852,0.507,1.809,2.449,1.608c4.33-0.451,8.673-0.779,12.996-1.285
			c6.609-0.773,12.951-2.379,18.423-6.439c1.579-1.172,2.994-2.518,4.239-4.023c0.146,0.031,0.226,0.078,0.214,0.229
			c-0.567,7.283,1.925,13.646,5.902,19.555c2.414,3.588,5.203,6.881,7.991,10.176c1.238,1.465,2.441,2.959,3.615,4.477
			c0.423,0.547,0.764,0.656,1.391,0.293c5.144-2.977,10.623-5.342,15.621-8.584c0.334-0.215,0.6-0.285,0.959-0.017
			C160.702,316.982,161.349,317.371,162.015,317.81z"/>
		<path style="fill-rule:evenodd;clip-rule:evenodd;fill:#4A397F;" d="M28.569,162.35c-4.805-6.436-6.977-14.335-12.393-20.277
			c4.371-1.681,7.656-4.964,11.202-7.859c3.656-2.984,7.333-5.926,11.543-8.117c3.481-1.811,7.14-2.96,11.099-3.006
			c0.316-0.004,0.66,0.045,0.838-0.314c0.18-0.363-0.048-0.606-0.279-0.836c-4.252-4.213-6.011-9.58-7.111-15.266
			c-0.89-4.601-1.123-9.275-1.618-13.919c-0.302-2.823-0.732-5.607-1.9-8.29c4.888,0.129,9.22-1.778,13.687-3.063
			c3.091-0.889,6.148-1.89,9.453-2.439c-0.16,0.844-0.313,1.574-0.43,2.311c-0.082,0.509-0.459,0.608-0.855,0.692
			c-5.788,1.225-11.285,3.444-16.992,4.944c-0.512,0.134-0.875,0.331-0.781,0.976c0.827,5.691,0.906,11.467,1.885,17.143
			c0.951,5.521,2.566,10.789,5.953,15.371c1.209,1.637,2.625,3.076,4.342,4.561c-2.615-0.058-4.987-0.098-7.34,0.36
			c-5.33,1.036-9.957,3.559-14.313,6.669c-4.594,3.277-8.668,7.2-13.162,10.6c-0.496,0.374-0.477,0.714-0.186,1.215
			c2.991,5.135,5.343,10.623,8.587,15.62c0.251,0.388,0.294,0.684,0.007,1.071C29.378,161.068,29.009,161.684,28.569,162.35z"/>
		<path style="fill-rule:evenodd;clip-rule:evenodd;fill:#4A397F;" d="M329.823,204.605c-5.605,2.434-9.721,6.98-14.506,10.609
			c-4.377,3.318-8.863,6.412-14.305,7.758c-1.636,0.406-3.287,0.656-4.976,0.643c-0.304-0.002-0.667-0.094-0.819,0.311
			c-0.132,0.352,0.036,0.607,0.275,0.85c5.197,5.295,6.714,12.076,7.68,19.072c0.66,4.785,0.734,9.637,1.648,14.395
			c0.257,1.334,0.699,2.605,1.232,3.926c-6.417,0.203-12.138,2.975-18.176,4.48c-1.394,0.348-2.794,0.666-4.195,0.98
			c-0.253,0.057-0.616,0.377-0.684-0.24c-0.149-1.359,0.629-2.457,1.973-2.777c4.932-1.176,9.699-2.902,14.554-4.336
			c2.438-0.719,2.469-0.715,2.211-3.248c-0.579-5.678-0.803-11.396-1.927-17.012c-1.187-5.924-3.286-11.42-7.493-15.924
			c-0.733-0.785-1.432-1.598-2.097-2.342c1.845,0.074,3.893,0.121,5.932-0.186c5.171-0.773,9.714-3.023,13.992-5.9
			c5.152-3.465,9.599-7.82,14.536-11.557c0.448-0.338,0.43-0.693,0.171-1.137c-2.875-4.928-5.107-10.209-8.217-15.004
			c-0.611-0.941-0.692-1.656,0.079-2.477c0.288-0.305,0.484-0.695,0.761-1.105C322.273,190.781,324.434,198.68,329.823,204.605z"/>
		<path style="fill-rule:evenodd;clip-rule:evenodd;fill:#4A397F;" d="M161.99,28.844c-2.108,1.728-2.118,1.743-4.347,0.383
			c-4.637-2.83-9.623-5.01-14.311-7.746c-0.434-0.253-0.73-0.195-1.025,0.188c-4.319,5.639-9.366,10.71-13.053,16.847
			c-3.225,5.369-5.104,11.068-4.641,17.408c0.008,0.106-0.022,0.215-0.031,0.293c-0.711-0.664-1.426-1.32-2.128-1.991
			c-4.302-4.111-9.571-6.251-15.278-7.489c-5.247-1.139-10.598-1.432-15.924-1.923c-1.152-0.106-2.309-0.218-3.449-0.405
			c-0.66-0.109-1.04-0.021-1.231,0.701c-1.442,5.478-3.59,10.75-4.758,16.303c-0.244,1.166-0.734,1.744-1.9,1.795
			c-0.392,0.016-0.779,0.114-1.264,0.19c1.109-7.882,5.23-14.979,5.533-23.017c5.735,2.207,11.918,1.903,17.928,2.75
			c4.833,0.682,9.614,1.539,14.016,3.822c2.002,1.04,3.822,2.313,5.436,3.887c0.225,0.22,0.429,0.523,0.807,0.383
			c0.369-0.136,0.361-0.471,0.367-0.801c0.104-5.861,2.475-10.891,5.692-15.624c2.905-4.273,6.382-8.091,9.579-12.131
			c1.491-1.885,2.865-3.841,3.727-6.21c4.577,4.394,10.52,6.437,15.802,9.58C159.045,26.934,160.567,27.801,161.99,28.844z"/>
		<path style="fill-rule:evenodd;clip-rule:evenodd;fill:#4A397F;" d="M204.268,330.322c-2.615-2.721-5.753-4.307-8.861-5.949
			c-3.492-1.842-7.038-3.594-10.341-5.777c-0.329-0.217-0.641-0.459-0.96-0.69c0.064-0.109,0.088-0.182,0.136-0.228
			c1.331-1.33,2.542-1.342,4.2-0.238c4.489,2.984,9.513,5.035,14.17,7.742c0.427,0.248,0.79,0.334,1.144-0.131
			c3.842-5.057,8.317-9.615,11.825-14.935c2.747-4.168,4.924-8.582,5.641-13.592c0.292-2.043,0.448-4.094,0.076-6.488
			c2.178,2.551,4.423,4.496,7.021,6.022c4.884,2.869,10.266,4.135,15.803,4.805c4.717,0.572,9.455,0.965,14.181,1.463
			c0.673,0.07,1.006-0.094,1.191-0.791c1.521-5.701,3.678-11.219,4.967-16.99c0.124-0.555,2.362-1.496,2.791-1.168
			c0.318,0.242,0.084,0.586,0.024,0.881c-0.81,4.037-2.126,7.934-3.342,11.855c-1.03,3.32-2.084,6.631-2.015,10.24
			c-5.98-2.24-12.283-1.934-18.407-2.82c-4.393-0.637-8.746-1.426-12.797-3.369c-2.286-1.096-4.398-2.434-6.181-4.26
			c-0.238-0.244-0.468-0.59-0.908-0.379c-0.29,0.137-0.374,0.377-0.372,0.686c0.038,6.527-2.936,11.896-6.547,17.02
			c-2.074,2.945-4.462,5.641-6.725,8.434C207.823,324.328,205.553,326.912,204.268,330.322z"/>
		<path style="fill-rule:evenodd;clip-rule:evenodd;fill:#4A397F;" d="M56.313,221.697c-6.925,5.725-9.484,13.305-10.616,21.506
			c-0.715,5.18-1.104,10.402-1.663,15.605c-0.067,0.625,0.214,0.865,0.745,1.004c5.671,1.486,11.13,3.705,16.882,4.906
			c0.682,0.141,1.03,0.432,1.076,1.16c0.036,0.588,0.226,1.164,0.373,1.855c-1.685-0.148-3.248-0.584-4.799-1.033
			c-4.29-1.242-8.563-2.545-12.854-3.785c-1.762-0.508-3.583-0.688-5.498-0.68c1.854-4.223,1.868-8.699,2.323-13.09
			c0.589-5.686,1.146-11.367,3.339-16.727c1.144-2.795,2.64-5.371,4.818-7.506c0.251-0.246,0.59-0.479,0.445-0.904
			c-0.146-0.432-0.535-0.398-0.898-0.4c-4.784-0.023-9.056-1.691-13.093-4.096c-3.757-2.238-7.098-5.033-10.479-7.781
			c-3.241-2.633-6.263-5.594-10.341-7.121c3.975-3.914,5.822-9.029,8.459-13.658c1.244-2.184,2.393-4.422,3.984-6.59
			c0.495,0.715,0.944,1.385,1.415,2.037c0.253,0.351,0.03,0.598-0.14,0.861c-3.199,4.979-5.568,10.41-8.51,15.529
			c-0.274,0.477-0.512,0.873,0.084,1.328c4.544,3.467,8.684,7.438,13.358,10.74c4.605,3.254,9.493,5.889,15.177,6.715
			C51.925,221.869,53.956,221.867,56.313,221.697z"/>
		<path style="fill-rule:evenodd;clip-rule:evenodd;fill:#4A397F;" d="M221.548,54.619c0.055-7.58-3.006-14.007-7.344-19.979
			c-3.247-4.469-7.068-8.47-10.387-12.877c-0.361-0.48-0.694-0.531-1.211-0.23c-5.107,2.963-10.55,5.317-15.524,8.521
			c-0.51,0.328-0.88,0.379-1.366-0.016c-0.49-0.398-1.056-0.705-1.691-1.118c6.391-4.796,14.278-6.96,20.236-12.366
			c2.483,5.683,7.12,9.859,10.805,14.738c3.238,4.289,6.232,8.706,7.557,14.024c0.407,1.634,0.684,3.284,0.634,4.978
			c-0.011,0.359-0.047,0.739,0.381,0.912c0.37,0.15,0.609-0.093,0.834-0.319c4.157-4.187,9.447-5.939,15.049-7.048
			c4.559-0.9,9.193-1.137,13.799-1.621c2.905-0.305,5.78-0.691,8.522-1.918c0.114,5.861,2.516,11.079,4,16.518
			c0.586,2.149,1.165,4.292,1.565,6.473c-0.135,0.047-0.199,0.09-0.264,0.091c-1.979,0.017-2.754-0.961-3.169-2.931
			c-1.1-5.232-3.176-10.201-4.519-15.378c-0.124-0.478-0.339-0.79-0.914-0.708c-6.207,0.887-12.514,0.931-18.68,2.153
			c-6.969,1.382-13.286,4.021-18.057,9.566C221.107,55.703,221.559,55.12,221.548,54.619z"/>
	</g>
</g>
</svg>
